<svg width="231" height="97" viewBox="0 0 231 97" fill="none" xmlns="http://www.w3.org/2000/svg">
<g filter="url(#filter0_b_95_262)">
<rect x="1.09998" y="0.5" width="229.4" height="95.5722" rx="14.5" stroke="#EDEDED" stroke-opacity="0.02"/>
<g clip-path="url(#clip0_95_262)">
<path d="M52.3812 48.177C52.3492 48.7374 52.5403 49.2875 52.9127 49.7067C53.2851 50.1258 53.8083 50.3796 54.3673 50.4123H54.4825C54.8942 50.4119 55.2968 50.2906 55.6405 50.0635C55.9842 49.8364 56.2541 49.5134 56.4168 49.1343C56.5795 48.7553 56.6278 48.3368 56.5559 47.9305C56.4841 47.5242 56.2951 47.1479 56.0122 46.848C55.7294 46.5482 55.3652 46.3378 54.9645 46.243C54.5638 46.1482 54.1442 46.1731 53.7575 46.3146C53.3707 46.456 53.0337 46.7079 52.7882 47.0391C52.5426 47.3702 52.3991 47.7663 52.3755 48.1782L52.3812 48.177Z" fill="#61D290"/>
<path d="M44.52 47.6413C44.3856 47.6338 44.2519 47.6663 44.136 47.7349C44.0201 47.8034 43.927 47.9049 43.8686 48.0264C43.8101 48.148 43.789 48.2842 43.8077 48.4178C43.8265 48.5514 43.8844 48.6764 43.974 48.777C44.0636 48.8777 44.181 48.9494 44.3114 48.9832C44.4417 49.017 44.5791 49.0114 44.7062 48.9669C44.8333 48.9225 44.9444 48.8413 45.0254 48.7336C45.1065 48.6259 45.1539 48.4965 45.1616 48.3618C45.1669 48.2722 45.1545 48.1825 45.1251 48.0977C45.0957 48.0129 45.0498 47.9349 44.9902 47.8679C44.9306 47.801 44.8583 47.7465 44.7776 47.7076C44.6969 47.6687 44.6094 47.6462 44.52 47.6413Z" fill="#61D290"/>
<path d="M52.2476 35.9141C52.3673 35.8524 52.4662 35.7567 52.5317 35.6389C52.5972 35.5211 52.6265 35.3866 52.6159 35.2521C52.6053 35.1177 52.5553 34.9894 52.4721 34.8834C52.3888 34.7774 52.2762 34.6984 52.1483 34.6564C52.0204 34.6145 51.883 34.6113 51.7534 34.6475C51.6237 34.6836 51.5077 34.7574 51.4197 34.8595C51.3318 34.9616 51.276 35.0875 51.2593 35.2213C51.2427 35.3551 51.2659 35.4909 51.326 35.6115C51.3664 35.6923 51.4224 35.7642 51.4907 35.8232C51.559 35.8822 51.6383 35.927 51.724 35.9551C51.8096 35.9833 51.9 35.9941 51.9899 35.987C52.0798 35.98 52.1674 35.9552 52.2476 35.9141Z" fill="#61D290"/>
<path d="M54.3869 39.6527C54.5728 39.5587 54.7267 39.4116 54.8292 39.2299C54.9317 39.0482 54.9782 38.8402 54.9627 38.6321C54.9472 38.424 54.8706 38.2252 54.7424 38.0607C54.6142 37.8963 54.4402 37.7736 54.2425 37.7082C54.0447 37.6429 53.8321 37.6378 53.6314 37.6935C53.4308 37.7492 53.2511 37.8633 53.1152 38.0214C52.9792 38.1795 52.8931 38.3744 52.8676 38.5815C52.8422 38.7886 52.8786 38.9987 52.9722 39.1851C53.0344 39.3089 53.1204 39.4192 53.2252 39.5098C53.33 39.6003 53.4515 39.6692 53.5829 39.7127C53.7143 39.7561 53.8529 39.7731 53.9908 39.7628C54.1288 39.7525 54.2634 39.7151 54.3869 39.6527Z" fill="#61D290"/>
<path d="M47.188 42.2239C47.3314 42.3184 47.4995 42.3682 47.6712 42.3669C47.8428 42.3656 48.0102 42.3133 48.1521 42.2167C48.2941 42.12 48.4042 41.9833 48.4687 41.8239C48.5331 41.6645 48.5489 41.4895 48.514 41.3211C48.4792 41.1526 48.3953 40.9983 48.273 40.8777C48.1506 40.7571 47.9953 40.6756 47.8267 40.6434C47.6581 40.6113 47.4838 40.63 47.3258 40.6972C47.1678 40.7644 47.0333 40.877 46.9392 41.0209C46.8132 41.2135 46.7686 41.4484 46.8152 41.674C46.8619 41.8996 46.996 42.0974 47.188 42.2239Z" fill="#61D290"/>
<path d="M48.4702 47.2569C48.2623 47.2451 48.0557 47.2954 47.8763 47.4013C47.6969 47.5073 47.5529 47.6641 47.4625 47.8521C47.3721 48.0401 47.3392 48.2507 47.3682 48.4573C47.3972 48.664 47.4866 48.8574 47.6252 49.0131C47.7638 49.1688 47.9454 49.2798 48.147 49.3321C48.3485 49.3844 48.561 49.3757 48.7576 49.3069C48.9542 49.2382 49.1261 49.1126 49.2514 48.9461C49.3768 48.7795 49.4501 48.5794 49.4621 48.3711C49.4778 48.0915 49.3822 47.8172 49.1962 47.6082C49.0102 47.3993 48.7491 47.2729 48.4702 47.2569Z" fill="#61D290"/>
<path d="M47.3032 54.3518C47.1501 54.4294 47.0234 54.5507 46.9391 54.7004C46.8548 54.8501 46.8166 55.0215 46.8295 55.1929C46.8423 55.3644 46.9056 55.5281 47.0113 55.6635C47.117 55.7989 47.2604 55.8999 47.4233 55.9536C47.5863 56.0074 47.7615 56.0115 47.9267 55.9654C48.092 55.9194 48.24 55.8253 48.3519 55.695C48.4638 55.5647 48.5346 55.4041 48.5555 55.2335C48.5764 55.0628 48.5463 54.8898 48.469 54.7363C48.4177 54.6343 48.3468 54.5434 48.2605 54.4689C48.1741 54.3944 48.0739 54.3376 47.9656 54.3019C47.8573 54.2662 47.7431 54.2522 47.6295 54.2608C47.5158 54.2694 47.4049 54.3003 47.3032 54.3518Z" fill="#61D290"/>
<path d="M51.3962 45.0758C51.6013 45.2105 51.8416 45.2812 52.0867 45.279C52.3318 45.2768 52.5708 45.2018 52.7734 45.0635C52.9761 44.9252 53.1332 44.7298 53.225 44.502C53.3168 44.2742 53.3392 44.0242 53.2893 43.7837C53.2393 43.5431 53.1193 43.3228 52.9445 43.1506C52.7696 42.9784 52.5478 42.862 52.3069 42.8162C52.0661 42.7703 51.8171 42.7971 51.5914 42.8931C51.3658 42.9891 51.1736 43.15 51.0391 43.3555C50.9497 43.4919 50.888 43.6446 50.8575 43.8049C50.8271 43.9653 50.8285 44.1301 50.8617 44.2899C50.8948 44.4497 50.9591 44.6013 51.0509 44.7362C51.1426 44.8711 51.26 44.9865 51.3962 45.0758Z" fill="#61D290"/>
<path d="M64.3816 39.5695C64.5562 39.6837 64.7606 39.7434 64.969 39.7411C65.1774 39.7388 65.3805 39.6746 65.5525 39.5567C65.7246 39.4388 65.8579 39.2724 65.9356 39.0785C66.0133 38.8847 66.0319 38.6721 65.9891 38.4676C65.9462 38.2632 65.8439 38.076 65.695 37.9299C65.5461 37.7837 65.3572 37.6851 65.1524 37.6465C64.9476 37.6078 64.7359 37.6309 64.5442 37.7128C64.3524 37.7948 64.1892 37.9318 64.0752 38.1067C63.9992 38.2228 63.9469 38.3529 63.9212 38.4893C63.8955 38.6258 63.897 38.766 63.9254 38.9019C63.9539 39.0378 64.0088 39.1667 64.0871 39.2813C64.1654 39.3958 64.2655 39.4938 64.3816 39.5695Z" fill="#61D290"/>
<path d="M66.5428 35.8425C66.6556 35.9167 66.7879 35.9556 66.9228 35.9544C67.0577 35.9531 67.1892 35.9118 67.3007 35.8357C67.4122 35.7595 67.4987 35.6519 67.5491 35.5265C67.5996 35.4011 67.6118 35.2635 67.5843 35.1312C67.5567 34.9988 67.4905 34.8776 67.3942 34.7829C67.2979 34.6882 67.1757 34.6243 67.0431 34.5992C66.9106 34.5741 66.7735 34.589 66.6494 34.642C66.5253 34.695 66.4196 34.7837 66.3458 34.8969C66.2469 35.0485 66.2121 35.2333 66.2491 35.4106C66.286 35.5879 66.3917 35.7432 66.5428 35.8425Z" fill="#61D290"/>
<path d="M64.5475 46.1657C64.2711 46.1498 63.9942 46.1886 63.7327 46.2799C63.4712 46.3713 63.2302 46.5133 63.0234 46.698C62.6059 47.071 62.3534 47.5949 62.3213 48.1545C62.2892 48.7141 62.4802 49.2636 62.8524 49.682C63.2245 50.1005 63.7473 50.3536 64.3056 50.3858C64.3459 50.3858 64.3874 50.3858 64.4277 50.3858C64.8345 50.3856 65.2325 50.2674 65.5737 50.0456C65.915 49.8238 66.185 49.5078 66.3511 49.1357C66.5172 48.7636 66.5723 48.3512 66.5098 47.9484C66.4474 47.5456 66.27 47.1694 65.999 46.8654C65.8156 46.658 65.5927 46.4894 65.3435 46.3692C65.0943 46.2491 64.8237 46.1799 64.5475 46.1657Z" fill="#61D290"/>
<path d="M55.0792 44.9291C55.2542 45.2796 55.5233 45.5741 55.8563 45.7795C56.1893 45.9849 56.5729 46.0931 56.9639 46.0918C57.3243 46.0919 57.6788 45.9994 57.9935 45.8231C58.3081 45.6468 58.5725 45.3927 58.7612 45.0849C58.95 44.7771 59.057 44.426 59.0718 44.065C59.0867 43.704 59.009 43.3452 58.8462 43.0229C58.67 42.6741 58.4003 42.3813 58.0675 42.1774C57.7346 41.9735 57.3517 41.8664 56.9616 41.8683C56.6022 41.8689 56.2489 41.9615 55.9353 42.1374C55.6217 42.3133 55.3581 42.5665 55.1695 42.8731C54.981 43.1797 54.8737 43.5295 54.8579 43.8894C54.8421 44.2492 54.9182 44.6071 55.0792 44.9291Z" fill="#61D290"/>
<path d="M71.6104 42.2216C71.7636 42.1442 71.8903 42.023 71.9748 41.8734C72.0592 41.7237 72.0974 41.5524 72.0847 41.3809C72.072 41.2095 72.0088 41.0457 71.9032 40.9102C71.7977 40.7748 71.6544 40.6737 71.4915 40.6199C71.3286 40.566 71.1535 40.5617 70.9882 40.6076C70.8229 40.6534 70.6749 40.7474 70.5628 40.8775C70.4508 41.0077 70.3798 41.1682 70.3587 41.3388C70.3377 41.5094 70.3676 41.6824 70.4446 41.836C70.5483 42.042 70.7293 42.1983 70.9479 42.2706C71.1665 42.3429 71.4048 42.3253 71.6104 42.2216Z" fill="#61D290"/>
<path d="M66.264 42.8948C66.045 43.0053 65.8637 43.1784 65.7429 43.3922C65.6221 43.6061 65.5673 43.851 65.5854 44.096C65.6034 44.3411 65.6936 44.5752 65.8445 44.7689C65.9954 44.9626 66.2002 45.107 66.433 45.1841C66.6658 45.2611 66.9161 45.2672 67.1524 45.2016C67.3887 45.136 67.6002 45.0017 67.7603 44.8156C67.9204 44.6295 68.0218 44.4 68.0518 44.1561C68.0817 43.9123 68.0389 43.665 67.9286 43.4455C67.8555 43.2997 67.7544 43.1698 67.6311 43.0631C67.5079 42.9565 67.3648 42.8753 67.2102 42.8242C67.0556 42.773 66.8925 42.7529 66.7301 42.765C66.5677 42.7771 66.4093 42.8212 66.264 42.8948Z" fill="#61D290"/>
<path d="M59.3773 35.5239C59.5487 35.5336 59.719 35.4923 59.8669 35.405C60.0147 35.3177 60.1334 35.1884 60.208 35.0335C60.2825 34.8786 60.3096 34.705 60.2857 34.5347C60.2618 34.3644 60.188 34.2051 60.0737 34.0768C59.9594 33.9485 59.8097 33.8571 59.6436 33.8141C59.4774 33.7711 59.3023 33.7784 59.1403 33.8352C58.9783 33.8919 58.8368 33.9956 58.7336 34.133C58.6304 34.2704 58.5702 34.4354 58.5606 34.6071C58.5477 34.8372 58.6265 35.063 58.7796 35.2349C58.9328 35.4068 59.1478 35.5107 59.3773 35.5239Z" fill="#61D290"/>
<path d="M59.3681 40.9954C59.6128 41.0092 59.8561 40.9499 60.0672 40.8251C60.2783 40.7003 60.4478 40.5156 60.5542 40.2943C60.6605 40.0731 60.6991 39.8251 60.6649 39.5819C60.6308 39.3386 60.5254 39.111 60.3622 38.9277C60.199 38.7445 59.9853 38.6138 59.748 38.5523C59.5107 38.4908 59.2606 38.5011 59.0292 38.582C58.7978 38.6629 58.5955 38.8108 58.4479 39.0069C58.3003 39.203 58.214 39.4386 58.2 39.6838C58.1814 40.013 58.2941 40.3361 58.5131 40.582C58.7321 40.828 59.0397 40.9767 59.3681 40.9954Z" fill="#61D290"/>
<path d="M52.652 53.6775C52.8709 53.5669 53.0522 53.3937 53.1729 53.1798C53.2936 52.9659 53.3483 52.7209 53.33 52.4759C53.3118 52.2308 53.2215 51.9967 53.0705 51.8031C52.9195 51.6095 52.7146 51.4651 52.4817 51.3882C52.2489 51.3114 51.9985 51.3054 51.7622 51.3712C51.526 51.4369 51.3145 51.5714 51.1546 51.7576C50.9946 51.9439 50.8933 52.1735 50.8635 52.4174C50.8338 52.6613 50.8768 52.9086 50.9873 53.128C51.1354 53.422 51.3939 53.6451 51.7061 53.7482C52.0183 53.8512 52.3585 53.8258 52.652 53.6775Z" fill="#61D290"/>
<path d="M60.1688 42.8082C59.9117 43.2014 59.7928 43.6693 59.8309 44.1379C59.869 44.6064 60.0619 45.0489 60.3791 45.3952C60.6964 45.7415 61.1198 45.9719 61.5823 46.0499C62.0449 46.1279 62.5202 46.049 62.933 45.8258C63.3458 45.6026 63.6726 45.2478 63.8616 44.8175C64.0505 44.3873 64.091 43.9061 63.9764 43.4502C63.8618 42.9943 63.5989 42.5898 63.2291 42.3005C62.8593 42.0113 62.4038 41.8539 61.9348 41.8533C61.5845 41.8531 61.2396 41.9402 60.9313 42.1069C60.623 42.2736 60.3609 42.5146 60.1688 42.8082Z" fill="#61D290"/>
<path d="M63.8344 51.6443C63.6655 51.3086 63.4103 51.0242 63.0951 50.8203C62.7799 50.6165 62.4162 50.5006 62.0414 50.4847C61.6666 50.4688 61.2944 50.5533 60.9631 50.7297C60.6318 50.906 60.3535 51.1678 60.1568 51.4879C59.9602 51.8081 59.8523 52.175 59.8443 52.5509C59.8364 52.9268 59.9286 53.298 60.1116 53.6262C60.2945 53.9544 60.5615 54.2277 60.8851 54.418C61.2086 54.6083 61.5769 54.7086 61.952 54.7086C62.282 54.7063 62.607 54.6273 62.9013 54.4777C63.3991 54.2251 63.7768 53.7852 63.9517 53.2541C64.1265 52.7231 64.0844 52.1443 63.8344 51.6443Z" fill="#61D290"/>
<path d="M67.5185 51.4965C67.3135 51.3617 67.0733 51.2908 66.8282 51.2928C66.583 51.2948 66.344 51.3696 66.1412 51.5077C65.9385 51.6459 65.7812 51.8412 65.6892 52.069C65.5973 52.2968 65.5747 52.5468 65.6245 52.7873C65.6743 53.0279 65.7942 53.2483 65.9689 53.4207C66.1437 53.593 66.3655 53.7095 66.6063 53.7555C66.8471 53.8015 67.0962 53.7748 67.3219 53.6789C67.5476 53.5831 67.7399 53.4223 67.8745 53.2169C68.0543 52.9412 68.1178 52.6054 68.051 52.283C67.9843 51.9605 67.7928 51.6777 67.5185 51.4965Z" fill="#61D290"/>
<path d="M71.5551 48.3225C71.5668 48.1142 71.5167 47.907 71.411 47.7273C71.3053 47.5475 71.1487 47.4032 70.9612 47.3125C70.7737 47.2219 70.5635 47.189 70.3574 47.218C70.1512 47.2471 69.9582 47.3367 69.8029 47.4756C69.6475 47.6146 69.5367 47.7965 69.4845 47.9985C69.4324 48.2005 69.4411 48.4135 69.5096 48.6106C69.5782 48.8076 69.7035 48.9798 69.8697 49.1055C70.0359 49.2312 70.2356 49.3047 70.4434 49.3166C70.7223 49.3324 70.9961 49.2365 71.2045 49.0501C71.413 48.8637 71.5391 48.602 71.5551 48.3225Z" fill="#61D290"/>
<path d="M74.472 47.5709C74.3373 47.5631 74.2034 47.5956 74.0871 47.6641C73.9708 47.7326 73.8774 47.8341 73.8187 47.9559C73.76 48.0776 73.7387 48.214 73.7574 48.3479C73.776 48.4818 73.8339 48.6071 73.9236 48.7081C74.0134 48.809 74.131 48.881 74.2615 48.9149C74.3921 48.9489 74.5298 48.9432 74.6572 48.8988C74.7845 48.8543 74.8959 48.7729 74.9771 48.665C75.0584 48.5571 75.1059 48.4275 75.1136 48.2925C75.1237 48.1116 75.0618 47.9341 74.9416 47.7988C74.8213 47.6636 74.6524 47.5816 74.472 47.5709Z" fill="#61D290"/>
<path d="M71.7256 54.3484C71.5821 54.2542 71.414 54.2047 71.2425 54.2063C71.0709 54.2078 70.9037 54.2603 70.7619 54.3571C70.6202 54.4539 70.5102 54.5907 70.446 54.7501C70.3818 54.9095 70.3661 55.0844 70.4011 55.2527C70.436 55.4211 70.5199 55.5752 70.6423 55.6957C70.7646 55.8162 70.9199 55.8977 71.0884 55.9298C71.2569 55.9619 71.4312 55.9432 71.5891 55.876C71.747 55.8089 71.8815 55.6963 71.9756 55.5526C72.0381 55.4571 72.0813 55.3502 72.1025 55.2379C72.1238 55.1257 72.1228 55.0104 72.0996 54.8986C72.0764 54.7867 72.0314 54.6806 71.9672 54.5862C71.9031 54.4917 71.821 54.4109 71.7256 54.3484Z" fill="#61D290"/>
<path d="M52.372 60.7298C52.2592 60.6557 52.1271 60.6167 51.9922 60.6178C51.8573 60.6189 51.7258 60.6601 51.6143 60.7361C51.5028 60.8121 51.4163 60.9196 51.3657 61.0449C51.3151 61.1702 51.3027 61.3077 51.3301 61.4401C51.3574 61.5724 51.4234 61.6937 51.5195 61.7885C51.6156 61.8833 51.7376 61.9474 51.8701 61.9727C52.0026 61.9981 52.1396 61.9834 52.2638 61.9307C52.388 61.878 52.4938 61.7896 52.5678 61.6766C52.617 61.6016 52.651 61.5175 52.6678 61.4293C52.6845 61.3411 52.6838 61.2505 52.6656 61.1626C52.6474 61.0746 52.6121 60.9912 52.5618 60.9169C52.5114 60.8427 52.4469 60.7791 52.372 60.7298Z" fill="#61D290"/>
<path d="M66.666 60.6583C66.5456 60.7191 66.4458 60.8144 66.3794 60.9321C66.313 61.0497 66.2829 61.1845 66.2929 61.3193C66.3029 61.4542 66.3526 61.583 66.4356 61.6895C66.5187 61.796 66.6314 61.8755 66.7595 61.9178C66.8877 61.9601 67.0254 61.9634 67.1554 61.9273C67.2854 61.8911 67.4017 61.8171 67.4898 61.7147C67.5778 61.6122 67.6335 61.4859 67.6499 61.3517C67.6663 61.2175 67.6426 61.0815 67.5819 60.9608C67.5417 60.8805 67.4861 60.8091 67.4182 60.7504C67.3504 60.6918 67.2717 60.6471 67.1866 60.619C67.1015 60.5909 67.0118 60.5799 66.9224 60.5866C66.8331 60.5934 66.746 60.6177 66.666 60.6583Z" fill="#61D290"/>
<path d="M58.7449 53.7607C59.002 53.3674 59.1209 52.8994 59.0828 52.4308C59.0446 51.9622 58.8516 51.5197 58.5343 51.1734C58.217 50.8271 57.7935 50.5968 57.3309 50.5189C56.8683 50.441 56.393 50.52 55.9801 50.7433C55.5673 50.9666 55.2407 51.3216 55.0518 51.752C54.8629 52.1824 54.8227 52.6636 54.9375 53.1195C55.0522 53.5753 55.3154 53.9798 55.6854 54.2689C56.0553 54.558 56.5109 54.7152 56.98 54.7155C57.3303 54.7167 57.6754 54.63 57.9837 54.4632C58.292 54.2964 58.5537 54.0549 58.7449 53.7607Z" fill="#61D290"/>
<path d="M54.532 57.0039C54.3578 56.8897 54.1537 56.8298 53.9455 56.8318C53.7373 56.8338 53.5343 56.8976 53.3623 57.0152C53.1903 57.1328 53.0569 57.2988 52.9791 57.4923C52.9012 57.6859 52.8823 57.8982 52.9248 58.1025C52.9673 58.3067 53.0693 58.4938 53.2179 58.64C53.3664 58.7862 53.5549 58.885 53.7594 58.9239C53.964 58.9627 54.1755 58.9399 54.3671 58.8584C54.5588 58.7768 54.722 58.6401 54.8361 58.4656C54.989 58.2313 55.0429 57.9458 54.9859 57.6717C54.9288 57.3976 54.7656 57.1574 54.532 57.0039Z" fill="#61D290"/>
<path d="M59.4476 61.0485C59.2763 61.0387 59.106 61.08 58.9582 61.1673C58.8104 61.2545 58.6917 61.3837 58.6171 61.5386C58.5426 61.6934 58.5155 61.8669 58.5393 62.0372C58.5631 62.2075 58.6368 62.3668 58.7509 62.4951C58.8651 62.6235 59.0147 62.715 59.1808 62.7581C59.3468 62.8012 59.5219 62.794 59.6839 62.7374C59.8459 62.6808 59.9875 62.5774 60.0908 62.4401C60.1941 62.3029 60.2545 62.138 60.2644 61.9664C60.2709 61.8523 60.255 61.7381 60.2175 61.6303C60.1799 61.5224 60.1216 61.423 60.0457 61.3378C59.9699 61.2526 59.878 61.1831 59.7754 61.1335C59.6728 61.0838 59.5614 61.0549 59.4476 61.0485Z" fill="#61D290"/>
<path d="M59.4568 55.578C59.2119 55.5631 58.9681 55.6214 58.7562 55.7455C58.5444 55.8695 58.374 56.0538 58.2668 56.275C58.1595 56.4962 58.1202 56.7443 58.1537 56.9879C58.1873 57.2316 58.2922 57.4597 58.4552 57.6435C58.6183 57.8273 58.832 57.9585 59.0695 58.0204C59.307 58.0823 59.5574 58.0722 59.7892 57.9914C60.0209 57.9105 60.2235 57.7626 60.3712 57.5662C60.519 57.3699 60.6053 57.134 60.6192 56.8885C60.6381 56.5603 60.5263 56.238 60.3084 55.9924C60.0905 55.7467 59.7842 55.5977 59.4568 55.578Z" fill="#61D290"/>
<path d="M64.5268 56.9196C64.3408 57.0142 64.1869 57.162 64.0848 57.3443C63.9826 57.5265 63.9367 57.7351 63.9528 57.9435C63.9689 58.1519 64.0464 58.3509 64.1754 58.5151C64.3044 58.6794 64.4792 58.8016 64.6775 58.8663C64.8758 58.931 65.0889 58.9353 65.2896 58.8786C65.4904 58.8219 65.6699 58.7068 65.8053 58.5478C65.9408 58.3888 66.0261 58.1931 66.0505 57.9855C66.075 57.7779 66.0374 57.5677 65.9426 57.3815C65.88 57.2579 65.7937 57.1479 65.6886 57.0578C65.5835 56.9676 65.4618 56.8992 65.3302 56.8563C65.1987 56.8134 65.0601 56.7969 64.9222 56.8078C64.7843 56.8186 64.65 56.8566 64.5268 56.9196Z" fill="#61D290"/>
<path d="M87.7902 43.2943C89.8316 43.2943 91.2612 44.4189 91.2612 46.5064H93.935C93.935 42.844 91.2405 41.0798 87.7499 41.0798C83.4622 41.0798 80.9716 43.4132 80.9716 48.3445C80.9716 53.3982 83.4622 55.6081 87.7499 55.6081C91.282 55.6081 93.935 53.89 93.935 50.2265H91.3626C91.3626 52.2724 89.9537 53.3982 87.7914 53.3982C84.9529 53.3982 83.6442 51.8221 83.6442 48.5489V48.1401C83.6465 44.9304 84.9725 43.2943 87.7902 43.2943Z" fill="#61D290"/>
<path d="M101.005 41.3292L95.5536 55.3667H98.2493L99.3713 52.3175H105.778L106.93 55.3667H109.747L104.293 41.3292H101.005ZM100.188 50.1041L101.618 46.2558C101.903 45.4996 102.414 43.8623 102.516 43.576H102.618C102.72 43.8623 103.231 45.5192 103.516 46.2558L104.945 50.1029L100.188 50.1041Z" fill="#61D290"/>
<path d="M124.325 45.585C124.325 42.9872 122.834 41.3292 119.751 41.3292H112.36V55.3667H114.974V49.9401H119.322L121.971 55.3667H124.829L121.834 49.5349C123.487 48.8802 124.325 47.4889 124.325 45.585ZM119.546 47.7337H114.974V43.5598H119.546C120.955 43.5598 121.69 44.3173 121.69 45.585C121.69 46.9163 120.894 47.7337 119.546 47.7337Z" fill="#61D290"/>
<path d="M133.492 41.3292H127.896V55.3667H133.49C137.716 55.3667 140.287 53.1568 140.287 48.348C140.287 43.5391 137.718 41.3292 133.492 41.3292ZM137.617 48.5523C137.596 51.6224 136.147 53.1361 133.492 53.1361H130.512V43.5598H133.492C136.142 43.5598 137.617 45.0747 137.617 48.1436V48.5523Z" fill="#61D290"/>
<path d="M147.134 41.3292L141.681 55.3667H144.375L145.499 52.3175H151.909L153.052 55.3667H155.87L150.419 41.3292H147.134ZM146.318 50.1041L147.745 46.2558C148.031 45.4996 148.541 43.8623 148.643 43.576H148.747C148.849 43.8623 149.36 45.5192 149.646 46.2558L151.074 50.1029L146.318 50.1041Z" fill="#61D290"/>
<path d="M167.817 49.6781C167.817 49.9436 167.858 50.6595 167.858 50.783L167.756 50.8234C167.695 50.7426 167.286 50.0256 167.065 49.6988L160.981 41.3292H158.487V55.3667H160.999V46.9567C160.999 46.6103 160.957 45.9337 160.957 45.8309L161.06 45.7697C161.121 45.8517 161.427 46.4452 161.751 46.9163L167.876 55.3667H170.325V41.3292H167.815V49.6781H167.817Z" fill="#61D290"/>
<path d="M180.736 41.0844C176.347 41.0844 173.693 43.4166 173.693 48.3479C173.693 53.2792 176.342 55.6115 180.736 55.6115C185.13 55.6115 187.8 53.2792 187.8 48.3479C187.8 43.4166 185.125 41.0844 180.736 41.0844ZM185.125 48.5731C185.125 51.7852 183.594 53.4016 180.736 53.4016C177.899 53.4016 176.368 51.7852 176.368 48.5731V48.1436C176.368 44.9303 177.919 43.2942 180.736 43.2942C183.574 43.2942 185.125 44.9303 185.125 48.1436V48.5731Z" fill="#61D290"/>
</g>
</g>
<defs>
<filter id="filter0_b_95_262" x="-9.40002" y="-10" width="250.4" height="116.572" filterUnits="userSpaceOnUse" color-interpolation-filters="sRGB">
<feFlood flood-opacity="0" result="BackgroundImageFix"/>
<feGaussianBlur in="BackgroundImageFix" stdDeviation="5"/>
<feComposite in2="SourceAlpha" operator="in" result="effect1_backgroundBlur_95_262"/>
<feBlend mode="normal" in="SourceGraphic" in2="effect1_backgroundBlur_95_262" result="shape"/>
</filter>
<clipPath id="clip0_95_262">
<rect width="144" height="29" fill="white" transform="translate(43.8 33.7861)"/>
</clipPath>
</defs>
</svg>
