<svg width="232" height="97" viewBox="0 0 232 97" fill="none" xmlns="http://www.w3.org/2000/svg">
<g filter="url(#filter0_b_95_225)">
<rect x="1.30005" y="0.5" width="229.4" height="95.5722" rx="14.5" stroke="#EDEDED" stroke-opacity="0.02"/>
<path d="M89.4843 35.9331H95.0046C96.4073 35.9331 97.433 36.3102 98.0966 36.9588C98.7452 37.5168 99.0318 38.271 99.0318 39.01C99.0318 39.2966 99.0318 39.6586 98.9413 39.9452C98.7603 40.4128 98.4737 40.8803 98.0966 41.2574C97.9156 41.4384 97.7195 41.544 97.5386 41.6345C98.1871 41.8155 98.7603 42.1925 99.2278 42.6601C99.6049 43.1277 99.7859 43.6858 99.7859 44.5304C99.7859 44.998 99.6954 45.556 99.4993 45.9331C99.3183 46.3102 98.9413 46.6873 98.5642 46.9588C98.0966 47.2453 97.629 47.4263 97.1615 47.6073C96.6034 47.7883 95.9398 47.7883 95.2912 47.7883H89.5748V35.903H89.4843V35.9331ZM94.537 40.7898C95.0046 40.7898 95.4722 40.6993 95.9398 40.5033C96.3168 40.3223 96.4978 39.9452 96.4978 39.5681C96.4978 39.191 96.3168 38.814 96.0303 38.633C95.6532 38.3464 95.1856 38.2559 94.718 38.3464H92.0936V40.8652H94.522V40.7898H94.537ZM95.1856 45.5711C95.6532 45.5711 96.1208 45.4806 96.5883 45.2846C96.9654 45.1036 97.1464 44.7265 97.0559 44.2589C97.0559 43.8818 96.8749 43.5048 96.5883 43.3238C96.3018 43.1428 95.7437 42.9467 95.0951 42.9467H92.0031V45.5711H95.1856Z" fill="#F3BA2F"/>
<path d="M103.044 35.9332H105.668V47.9091H103.044V35.9332Z" fill="#F3BA2F"/>
<path d="M109.695 35.9332H112.124L117.735 43.3239V35.9332H120.344V47.9091H118.112L112.214 40.3224V47.9091H109.695V35.9332Z" fill="#F3BA2F"/>
<path d="M128.308 35.8428H130.736L135.879 47.9091H133.164L132.048 45.1942H126.995L125.879 47.9091H123.164L128.308 35.8428ZM131.113 42.9468L129.529 39.0253L127.946 42.9468H131.113Z" fill="#F3BA2F"/>
<path d="M138.685 35.9332H141.113L146.724 43.3239V35.9332H149.348V47.9091H147.101L141.294 40.3224V47.9091H138.685V35.9332Z" fill="#F3BA2F"/>
<path d="M158.881 48.09C158.036 48.09 157.191 47.909 156.452 47.6224C154.959 46.9739 153.828 45.8426 153.179 44.3494C152.893 43.5953 152.712 42.7657 152.712 41.9211C152.712 40.3374 153.36 38.7386 154.492 37.5319C155.05 36.9739 155.713 36.5063 156.452 36.2197C157.297 35.8426 158.142 35.7521 158.971 35.7521C159.439 35.7521 159.997 35.7521 160.464 35.8426C160.932 35.9331 161.309 36.0236 161.686 36.2197C162.063 36.4007 162.44 36.5968 162.712 36.7778C162.998 36.9588 163.36 37.2454 163.647 37.5319L162.063 39.4927C161.596 39.1156 161.128 38.7386 160.661 38.4671C160.193 38.1956 159.635 38.09 159.077 38.09C158.609 38.09 158.142 38.1805 157.674 38.3766C157.207 38.5576 156.83 38.8441 156.558 39.2212C156.287 39.5983 156 39.9754 155.804 40.4429C155.623 40.9105 155.517 41.3781 155.517 41.8456C155.517 42.3132 155.608 42.8713 155.804 43.3389C156 43.8064 156.181 44.1835 156.558 44.5606C157.207 45.3147 158.142 45.6767 159.077 45.6767C159.635 45.6767 160.299 45.5862 160.857 45.2997C161.324 45.0131 161.882 44.6511 162.259 44.274L163.934 45.9482C163.647 46.2348 163.285 46.5968 162.998 46.8834C162.621 47.1699 162.244 47.3509 161.882 47.5319C161.505 47.7129 161.038 47.909 160.57 47.9995C159.906 48.09 159.348 48.09 158.881 48.09Z" fill="#F3BA2F"/>
<path d="M166.935 35.9332H175.91V38.2711H169.454V40.6994H175.155V43.0373H169.454V45.5712H176V47.9091H166.935V35.9332Z" fill="#F3BA2F"/>
<path d="M92.8477 59.6888C92.1991 59.6888 91.5354 59.5983 90.9774 59.3117C90.4193 59.1307 89.8612 58.7536 89.2881 58.2861L90.2232 57.2604C90.6003 57.6375 90.9774 57.8185 91.4449 58.1051C91.9125 58.2861 92.3801 58.3916 92.8477 58.3916C93.2247 58.3916 93.6018 58.3012 93.9638 58.1051C94.2504 57.9241 94.3409 57.6375 94.3409 57.3509C94.3409 57.2604 94.3409 57.0644 94.2504 56.9739C94.1599 56.8834 94.0694 56.6873 93.9638 56.5968C93.7828 56.5063 93.5867 56.4158 93.4057 56.3102C93.1192 56.2197 92.7572 56.1292 92.4706 56.0236C92.0935 55.9331 91.6259 55.8426 91.2489 55.6465C90.9623 55.5561 90.6003 55.36 90.4042 55.179C90.2232 54.998 90.0271 54.8019 89.8462 54.5304C89.6652 54.1533 89.6652 53.7763 89.6652 53.5048C89.6652 53.1277 89.7557 52.8562 89.8462 52.4791C89.9367 52.1926 90.2232 51.9211 90.4042 51.725C90.6908 51.544 90.9623 51.3479 91.3394 51.2574C91.7164 51.1669 92.0935 51.0764 92.4555 51.0764C93.0136 51.0764 93.5716 51.1669 94.1448 51.363C94.6124 51.544 95.0799 51.8306 95.5475 52.1171L94.7934 53.2333C94.4163 52.9467 94.0392 52.7657 93.6772 52.5847C93.3002 52.4037 92.9231 52.4037 92.5611 52.4037C92.184 52.4037 91.8069 52.4942 91.5354 52.6903C91.3544 52.8713 91.1584 53.1579 91.1584 53.4444C91.1584 53.6254 91.1584 53.731 91.2489 53.912C91.3394 54.0025 91.4299 54.1986 91.5354 54.2891C91.7164 54.3796 91.9125 54.4701 92.184 54.5757C92.4706 54.6662 92.7421 54.7567 93.2097 54.8622C93.5867 54.9527 93.9638 55.0432 94.4314 55.2393C94.718 55.3298 94.9894 55.5259 95.276 55.7069C95.457 55.8879 95.6531 56.1745 95.7436 56.3555C95.8341 56.642 95.9246 56.9135 95.9246 57.2906C95.9246 57.6677 95.8341 58.0447 95.7436 58.3162C95.5626 58.6028 95.3665 58.8743 95.095 59.1609C94.8084 59.3419 94.537 59.538 94.1599 59.6285C93.6923 59.5983 93.2247 59.6888 92.8477 59.6888Z" fill="#F3BA2F"/>
<path d="M97.5234 51.182H99.1222L101.641 55.1036L104.266 51.182H105.849V59.5983H104.356V53.5199L101.732 57.4414H101.641L99.0317 53.5199V59.5983H97.5234V51.182Z" fill="#F3BA2F"/>
<path d="M110.902 51.0916H112.305L115.955 59.5078H114.371L113.527 57.4566H109.605L108.76 59.5078H107.267L110.902 51.0916ZM113.059 56.2348L111.566 52.8713L110.163 56.2348H113.059Z" fill="#F3BA2F"/>
<path d="M117.448 51.182H121.188C121.656 51.182 122.124 51.2725 122.591 51.363C122.968 51.4535 123.345 51.7401 123.617 52.0116C123.798 52.1926 123.994 52.4791 124.175 52.8562C124.265 53.1428 124.356 53.5048 124.356 53.8819C124.356 54.1684 124.265 54.5304 124.175 54.817C124.084 55.1036 123.888 55.2846 123.798 55.5711C123.617 55.7521 123.421 55.9482 123.149 56.1292C122.863 56.3102 122.591 56.4158 122.305 56.5063L124.552 59.6888H122.772L120.721 56.7929H118.851V59.6888H117.357L117.448 51.182ZM121.098 55.2997C121.566 55.2997 122.033 55.2092 122.32 54.9226C122.606 54.636 122.787 54.274 122.787 53.8969C122.787 53.5199 122.606 53.1428 122.32 52.8713C121.943 52.5847 121.475 52.4942 121.007 52.4942H118.851V55.2997H121.098Z" fill="#F3BA2F"/>
<path d="M128.202 52.4942H125.487V51.182H132.32V52.4942H129.605V59.5983H128.112L128.202 52.4942Z" fill="#F3BA2F"/>
<path d="M141.4 59.6888C140.842 59.6888 140.284 59.5983 139.71 59.3117C138.685 58.8441 137.84 58.09 137.463 57.0643C137.282 56.5063 137.086 55.9482 137.177 55.3751C137.177 54.817 137.267 54.2589 137.463 53.6858C137.84 52.6601 138.685 51.8155 139.71 51.3479C140.269 51.1669 140.827 50.9708 141.49 50.9708C141.867 50.9708 142.244 50.9708 142.516 51.0613C142.802 51.1518 143.074 51.2423 143.361 51.3479C143.647 51.4384 143.828 51.6345 144.115 51.725C144.296 51.906 144.582 52.102 144.763 52.283L143.828 53.3992C143.542 53.1126 143.18 52.8411 142.802 52.645C142.425 52.464 141.958 52.3585 141.49 52.3585C141.113 52.3585 140.736 52.449 140.374 52.5395C139.997 52.7205 139.726 52.9165 139.439 53.188C139.152 53.4746 138.971 53.7461 138.881 54.1232C138.79 54.5002 138.7 54.8773 138.7 55.2393C138.7 55.6164 138.79 55.9935 138.881 56.3554C138.971 56.7174 139.167 57.004 139.439 57.2906C139.726 57.5772 139.997 57.7582 140.374 57.9392C140.751 58.1201 141.128 58.2257 141.49 58.1202C141.958 58.1202 142.425 58.0296 142.802 57.8336C143.18 57.6526 143.557 57.366 143.919 56.9889L144.854 57.9241C144.673 58.1051 144.386 58.3916 144.205 58.5726C143.919 58.7536 143.738 58.9497 143.451 59.0402C143.164 59.1307 142.893 59.3268 142.516 59.3268C142.139 59.6888 141.762 59.6888 141.4 59.6888Z" fill="#F3BA2F"/>
<path d="M146.347 51.182H147.75V54.636H151.777V51.182H153.27V59.5983H151.777V56.0387H147.75V59.5983H146.347V51.182Z" fill="#F3BA2F"/>
<path d="M158.413 51.0916H159.816L163.466 59.5078H161.882L161.038 57.4566H157.116L156.271 59.5078H154.778L158.413 51.0916ZM160.48 56.2348L159.077 52.8713L157.674 56.2348H160.48Z" fill="#F3BA2F"/>
<path d="M164.959 51.182H166.468V59.5983H164.959V51.182Z" fill="#F3BA2F"/>
<path d="M168.7 51.182H170.012L174.507 56.9739V51.182H176V59.5983H174.778L170.208 53.6104V59.5983H168.7V51.182Z" fill="#F3BA2F"/>
<path d="M73.0287 59.0403V62.6903L69.8462 64.5606L66.7541 62.6903V59.0403L69.8462 60.9105L73.0287 59.0403ZM56 46.4158L59.092 48.2861V54.5455L64.4163 57.728V61.3781L56 56.4158V46.4158ZM83.6923 46.4158V56.4309L75.1855 61.3932V57.7431L80.5098 54.5606V48.3012L83.6923 46.4158ZM75.1704 41.4535L78.3529 43.3238V46.9739L73.0287 50.1564V56.5063L69.9367 58.3766L66.8597 56.5063V50.1413L61.3394 46.9588V43.3087L64.5219 41.4384L69.8462 44.6209L75.1704 41.4535ZM61.3394 49.5832L64.4314 51.4535V55.1036L61.3394 53.2333V49.5832ZM78.3529 49.5832V53.2333L75.2609 55.1036V51.4535L78.3529 49.5832ZM59.092 38.271L62.2745 40.1413L59.092 42.0116V45.6617L56 43.7914V40.1413L59.092 38.271ZM80.6003 38.271L83.7828 40.1413V43.7914L80.6003 45.6617V42.0116L77.5083 40.1413L80.6003 38.271ZM69.8462 38.271L73.0287 40.1413L69.8462 42.0116L66.7541 40.1413L69.8462 38.271ZM69.8462 32.0116L78.3529 36.9739L75.2609 38.8442L69.9367 35.6617L64.5068 38.8442L61.4148 36.9739L69.8462 32.0116Z" fill="#F3BA2F"/>
</g>
<defs>
<filter id="filter0_b_95_225" x="-9.19995" y="-10" width="250.4" height="116.572" filterUnits="userSpaceOnUse" color-interpolation-filters="sRGB">
<feFlood flood-opacity="0" result="BackgroundImageFix"/>
<feGaussianBlur in="BackgroundImageFix" stdDeviation="5"/>
<feComposite in2="SourceAlpha" operator="in" result="effect1_backgroundBlur_95_225"/>
<feBlend mode="normal" in="SourceGraphic" in2="effect1_backgroundBlur_95_225" result="shape"/>
</filter>
</defs>
</svg>
