<svg width="231" height="97" viewBox="0 0 231 97" fill="none" xmlns="http://www.w3.org/2000/svg">
<g filter="url(#filter0_b_95_196)">
<rect x="0.5" y="0.5" width="229.4" height="95.5722" rx="14.5" stroke="#EDEDED" stroke-opacity="0.02"/>
<g clip-path="url(#clip0_95_196)">
<path d="M78.0601 51.4326C76.3006 58.3968 69.1528 62.6352 62.0948 60.8985C55.0396 59.1622 50.7446 52.1082 52.5049 45.1444C54.2636 38.1793 61.4114 33.9406 68.4674 35.6769C75.525 37.4131 79.8196 44.468 78.0601 51.4326Z" fill="#F7931A"/>
<path d="M71.0908 46.4356C71.353 44.7058 70.0184 43.7759 68.1934 43.1556L68.7854 40.8124L67.3401 40.4569L66.7637 42.7384C66.3838 42.645 65.9935 42.5568 65.6057 42.4695L66.1861 40.173L64.7416 39.8175L64.1492 42.1599C63.8347 42.0892 63.5259 42.0194 63.2262 41.9458L63.2279 41.9385L61.2346 41.4474L60.8501 42.9708C60.8501 42.9708 61.9225 43.2133 61.8999 43.2283C62.4852 43.3725 62.591 43.7548 62.5733 44.0579L61.899 46.7273C61.9394 46.7375 61.9917 46.7521 62.0493 46.7748C62.0011 46.7631 61.9497 46.7501 61.8966 46.7375L60.9514 50.4769C60.8797 50.6524 60.6982 50.9157 60.289 50.8157C60.3034 50.8365 59.2384 50.557 59.2384 50.557L58.5209 52.1897L60.4018 52.6524C60.7517 52.7389 61.0946 52.8295 61.4322 52.9148L60.834 55.2848L62.2778 55.6403L62.8702 53.2955C63.2645 53.4011 63.6474 53.4986 64.022 53.5904L63.4317 55.9243L64.877 56.2797L65.4752 53.9142C67.9399 54.3744 69.7932 54.1888 70.5733 51.989C71.2019 50.2178 70.542 49.1961 69.2453 48.5298C70.1896 48.3149 70.901 47.7019 71.0908 46.4356ZM67.7884 51.0055C67.3417 52.7767 64.3196 51.8192 63.3399 51.5791L64.1336 48.4392C65.1133 48.6805 68.2552 49.1583 67.7884 51.0055ZM68.2354 46.41C67.8279 48.0212 65.3126 47.2026 64.4967 47.0019L65.2163 44.1542C66.0322 44.3548 68.6599 44.7294 68.2354 46.41Z" fill="white"/>
<path d="M90.715 43.1531C91.7833 43.1531 92.7063 43.342 93.4819 43.7129C94.2611 44.0875 94.9042 44.592 95.42 45.2266C95.9288 45.8644 96.3075 46.6099 96.5521 47.4642C96.795 48.321 96.9168 49.2419 96.9168 50.2279C96.9168 51.7423 96.6356 53.1731 96.0679 54.5219C95.5003 55.8726 94.73 57.0442 93.7503 58.0436C92.7713 59.0417 91.6153 59.8286 90.2824 60.41C88.9514 60.9917 87.5044 61.2826 85.9508 61.2826C85.7499 61.2826 85.3967 61.2769 84.8977 61.2667C84.3988 61.2566 83.8253 61.2058 83.1831 61.1201C82.5368 61.0311 81.8534 60.8995 81.1318 60.7232C80.4105 60.5501 79.7255 60.3076 79.0804 59.9996L84.8487 36.0817L90.0152 35.2915L87.9498 43.7792C88.392 43.5825 88.8374 43.4302 89.282 43.3193C89.727 43.21 90.2046 43.1531 90.715 43.1531ZM86.3814 57.238C87.1594 57.238 87.8926 57.0491 88.5813 56.6782C89.2721 56.3069 89.8682 55.8056 90.3676 55.1812C90.8669 54.5539 91.2621 53.8475 91.5503 53.0582C91.8385 52.2688 91.9842 51.4454 91.9842 50.5886C91.9842 49.536 91.8059 48.715 91.4507 48.1215C91.0954 47.5304 90.438 47.233 89.4833 47.233C89.1704 47.233 88.7674 47.2919 88.2676 47.3972C87.7662 47.5089 87.3175 47.7408 86.9153 48.0898L84.7162 57.1035C84.8487 57.1267 84.9661 57.1486 85.0661 57.1693C85.1641 57.1917 85.2723 57.2075 85.3802 57.2185C85.4942 57.2311 85.6247 57.2376 85.7824 57.2376C85.9401 57.2376 86.1373 57.238 86.3814 57.238Z" fill="white"/>
<path d="M102.275 60.8248H97.34L101.507 43.52H106.476L102.275 60.8248ZM104.676 41.4116C103.987 41.4116 103.363 41.2093 102.809 40.8039C102.25 40.4009 101.973 39.7805 101.973 38.9445C101.973 38.4846 102.068 38.0532 102.256 37.6461C102.446 37.2399 102.695 36.8901 103.007 36.5927C103.319 36.2978 103.68 36.0622 104.09 35.8846C104.503 35.71 104.941 35.6226 105.409 35.6226C106.097 35.6226 106.719 35.8249 107.275 36.2304C107.829 36.6378 108.108 37.2582 108.108 38.0897C108.108 38.5512 108.013 38.9843 107.824 39.3905C107.636 39.7968 107.387 40.1465 107.075 40.4439C106.766 40.7393 106.401 40.9741 105.992 41.15C105.579 41.3275 105.142 41.4116 104.676 41.4116Z" fill="white"/>
<path d="M110.8 39.2085L115.969 38.4184L114.7 43.5192H120.235L119.235 47.5321H113.733L112.268 53.5851C112.133 54.0897 112.056 54.5609 112.035 54.9988C112.011 55.4388 112.067 55.8166 112.2 56.1347C112.333 56.4536 112.571 56.6994 112.917 56.8732C113.261 57.05 113.754 57.1389 114.4 57.1389C114.933 57.1389 115.451 57.0889 115.953 56.9898C116.451 56.8923 116.956 56.7566 117.468 56.5791L117.836 60.3312C117.169 60.5725 116.447 60.7801 115.669 60.9548C114.889 61.1319 113.967 61.2172 112.901 61.2172C111.368 61.2172 110.179 60.9925 109.332 60.5453C108.487 60.0947 107.889 59.4793 107.531 58.7001C107.178 57.9238 107.021 57.0288 107.065 56.0205C107.111 55.0098 107.265 53.9475 107.531 52.8287L110.8 39.2085Z" fill="white"/>
<path d="M120.018 53.9145C120.018 52.424 120.262 51.0184 120.751 49.7026C121.239 48.3856 121.941 47.2339 122.853 46.2455C123.762 45.262 124.869 44.4828 126.172 43.9108C127.468 43.342 128.92 43.0552 130.52 43.0552C131.522 43.0552 132.417 43.1487 133.204 43.336C133.994 43.5249 134.709 43.769 135.356 44.0753L133.654 47.894C133.21 47.7161 132.748 47.5593 132.271 47.4171C131.793 47.272 131.21 47.2022 130.521 47.2022C128.874 47.2022 127.572 47.7624 126.603 48.8791C125.637 49.9967 125.151 51.501 125.151 53.388C125.151 54.5064 125.396 55.4107 125.886 56.1026C126.375 56.7944 127.277 57.1385 128.586 57.1385C129.232 57.1385 129.856 57.0719 130.453 56.9419C131.055 56.8102 131.587 56.6445 132.055 56.4487L132.423 60.3633C131.799 60.6021 131.111 60.8178 130.356 61.0067C129.599 61.1891 128.698 61.2838 127.654 61.2838C126.275 61.2838 125.108 61.0847 124.154 60.6927C123.199 60.2946 122.409 59.7661 121.788 59.0966C121.163 58.4255 120.714 57.6418 120.437 56.7424C120.159 55.8438 120.018 54.8997 120.018 53.9145Z" fill="white"/>
<path d="M141.939 61.2838C140.761 61.2838 139.738 61.1067 138.87 60.7561C138.005 60.4055 137.288 59.9135 136.721 59.2757C136.154 58.6412 135.729 57.8892 135.438 57.0227C135.147 56.1566 135.007 55.1975 135.007 54.1465C135.007 52.8282 135.221 51.5104 135.655 50.1962C136.086 48.8791 136.726 47.6958 137.574 46.644C138.414 45.5906 139.451 44.7294 140.672 44.0578C141.892 43.3908 143.295 43.0552 144.871 43.0552C146.027 43.0552 147.045 43.2328 147.925 43.5833C148.8 43.9331 149.521 44.4292 150.092 45.0637C150.656 45.7015 151.084 46.4502 151.372 47.318C151.663 48.1824 151.806 49.144 151.806 50.1958C151.806 51.51 151.594 52.8278 151.174 54.1461C150.754 55.4579 150.13 56.6441 149.307 57.6983C148.485 58.7501 147.458 59.6109 146.224 60.2796C144.991 60.9482 143.562 61.2838 141.939 61.2838ZM144.405 47.2026C143.674 47.2026 143.027 47.4122 142.473 47.8262C141.918 48.245 141.451 48.7715 141.074 49.4065C140.694 50.0443 140.412 50.7397 140.221 51.4958C140.032 52.2534 139.94 52.9696 139.94 53.6501C139.94 54.7482 140.119 55.6033 140.472 56.2188C140.83 56.831 141.473 57.1389 142.407 57.1389C143.141 57.1389 143.784 56.9309 144.341 56.5125C144.893 56.0969 145.361 55.57 145.74 54.9338C146.118 54.2992 146.402 53.6017 146.593 52.8445C146.779 52.0893 146.874 51.369 146.874 50.6898C146.874 49.5945 146.696 48.7374 146.34 48.1227C145.984 47.5105 145.338 47.2026 144.405 47.2026Z" fill="white"/>
<path d="M157.183 60.8248H152.244L156.412 43.52H161.382L157.183 60.8248ZM159.581 41.4116C158.892 41.4116 158.268 41.2093 157.715 40.8039C157.159 40.4009 156.88 39.7805 156.88 38.9445C156.88 38.4846 156.976 38.0532 157.164 37.6461C157.352 37.2399 157.603 36.8901 157.915 36.5927C158.225 36.2978 158.589 36.0622 158.999 35.8846C159.409 35.71 159.847 35.6226 160.313 35.6226C161.003 35.6226 161.627 35.8249 162.182 36.2304C162.737 36.6378 163.017 37.2582 163.017 38.0897C163.017 38.5512 162.918 38.9843 162.731 39.3905C162.545 39.7968 162.294 40.1465 161.983 40.4439C161.67 40.7393 161.31 40.9741 160.9 41.15C160.487 41.3275 160.049 41.4116 159.581 41.4116Z" fill="white"/>
<path d="M164.939 44.3069C165.313 44.1988 165.732 44.0688 166.187 43.9274C166.643 43.7861 167.153 43.6544 167.723 43.5358C168.287 43.4135 168.923 43.3144 169.622 43.2376C170.321 43.1592 171.118 43.121 172.004 43.121C174.607 43.121 176.401 43.8689 177.391 45.3603C178.381 46.8516 178.552 48.8925 177.91 51.4795L175.64 60.8231H170.673L172.873 51.6761C173.007 51.1049 173.112 50.5529 173.19 50.0134C173.269 49.4787 173.264 49.0075 173.172 48.5996C173.085 48.1967 172.878 47.8668 172.557 47.6112C172.232 47.3598 171.74 47.2334 171.072 47.2334C170.429 47.2334 169.774 47.3017 169.106 47.4333L165.872 60.8227H160.902L164.939 44.3069Z" fill="white"/>
</g>
</g>
<defs>
<filter id="filter0_b_95_196" x="-10" y="-10" width="250.4" height="116.572" filterUnits="userSpaceOnUse" color-interpolation-filters="sRGB">
<feFlood flood-opacity="0" result="BackgroundImageFix"/>
<feGaussianBlur in="BackgroundImageFix" stdDeviation="5"/>
<feComposite in2="SourceAlpha" operator="in" result="effect1_backgroundBlur_95_196"/>
<feBlend mode="normal" in="SourceGraphic" in2="effect1_backgroundBlur_95_196" result="shape"/>
</filter>
<clipPath id="clip0_95_196">
<rect width="126.177" height="26" fill="white" transform="translate(52.1117 35.2861)"/>
</clipPath>
</defs>
</svg>
