<svg width="231" height="97" viewBox="0 0 231 97" fill="none" xmlns="http://www.w3.org/2000/svg">
<g filter="url(#filter0_b_95_208)">
<rect x="0.900024" y="0.5" width="229.4" height="95.5722" rx="14.5" stroke="#EDEDED" stroke-opacity="0.02"/>
<path d="M60.5907 32L50.6 48.587L60.5907 44.0491V32Z" fill="white"/>
<path d="M60.5907 44.0491L50.6 48.587L60.5907 54.4972V44.0491Z" fill="white"/>
<path d="M70.5935 48.587L60.5907 32V44.0491L70.5935 48.587Z" fill="white"/>
<path d="M60.5907 54.4972L70.5935 48.587L60.5907 44.0491V54.4972Z" fill="white"/>
<path d="M50.6 50.4889L60.5907 64.5722V56.387L50.6 50.4889Z" fill="white"/>
<path d="M60.5907 56.387V64.5722L70.5935 50.4889L60.5907 56.387Z" fill="white"/>
<path d="M87.301 50.8259C87.301 51.0546 87.0964 51.2593 86.8677 51.2593H78.8751C79.0797 53.1611 80.5603 55.0148 82.6547 55.0148C84.0871 55.0148 85.1464 54.4611 85.9529 53.3056C86.0371 53.1852 86.1575 53.1009 86.302 53.1009C86.5307 53.1009 86.6992 53.2694 86.6992 53.4981C86.6992 53.5824 86.6751 53.6426 86.639 53.7028C85.8325 55.1111 84.2316 55.7972 82.6547 55.7972C79.9584 55.7972 78.0446 53.3898 78.0446 50.8139C78.0446 48.238 79.9584 45.8426 82.6547 45.8426C85.351 45.8426 87.301 48.25 87.301 50.8259ZM86.4344 50.4407C86.2659 48.4065 84.7492 46.6611 82.6547 46.6611C80.5603 46.6611 79.0677 48.4065 78.8751 50.4407H86.4344Z" fill="white"/>
<path d="M97.0149 45.975C97.2436 45.975 97.4122 46.1796 97.4122 46.3843C97.4122 46.613 97.2436 46.7935 97.0149 46.7935H94.8723V55.2435C94.8723 55.4482 94.6918 55.6408 94.4631 55.6408C94.2344 55.6408 94.0538 55.4361 94.0538 55.2435V46.7935H91.9955C91.7668 46.7935 91.5983 46.613 91.5983 46.3843C91.5983 46.1796 91.7668 45.975 91.9955 45.975H94.0538V42.9176C94.0538 42.6889 94.2344 42.5204 94.4631 42.5204C94.6918 42.5204 94.8723 42.6889 94.8723 42.9176V45.975H97.0149Z" fill="white"/>
<path d="M110.039 50.0796V55.1833C110.039 55.412 109.907 55.5805 109.702 55.5805C109.473 55.5805 109.365 55.412 109.365 55.1833V50.0796C109.365 48.3583 108.366 46.637 106.44 46.637C103.972 46.637 102.877 48.7916 103.009 50.9944C103.009 51.0546 102.997 51.3074 102.997 51.3435V55.1833C102.997 55.412 102.889 55.5805 102.66 55.5805C102.432 55.5805 102.323 55.412 102.323 55.1833V38.4157C102.323 38.2111 102.432 38.0185 102.66 38.0185C102.889 38.0185 102.997 38.2231 102.997 38.4157V47.9009C103.816 46.6731 104.911 45.8426 106.344 45.8426C108.691 45.8426 110.039 47.9009 110.039 50.0796Z" fill="white"/>
<path d="M124.459 50.8259C124.459 51.0546 124.255 51.2593 124.026 51.2593H116.033C116.238 53.1611 117.719 55.0148 119.813 55.0148C121.245 55.0148 122.305 54.4611 123.111 53.3056C123.195 53.1852 123.316 53.1009 123.46 53.1009C123.689 53.1009 123.858 53.2694 123.858 53.4981C123.858 53.5824 123.833 53.6426 123.797 53.7028C122.991 55.1111 121.39 55.7972 119.813 55.7972C117.117 55.7972 115.203 53.3898 115.203 50.8139C115.203 48.238 117.117 45.8426 119.813 45.8426C122.509 45.8426 124.459 48.25 124.459 50.8259ZM123.605 50.4407C123.436 48.4065 121.92 46.6611 119.825 46.6611C117.731 46.6611 116.238 48.4065 116.045 50.4407H123.605Z" fill="white"/>
<path d="M134.294 46.3843C134.294 46.637 134.149 46.7815 133.908 46.8176C131.561 47.1667 130.49 49.0806 130.49 51.3194V55.1472C130.49 55.3759 130.309 55.5444 130.081 55.5444C129.852 55.5444 129.671 55.3759 129.671 55.1472V46.4083C129.671 46.1796 129.852 46.0111 130.081 46.0111C130.309 46.0111 130.49 46.1796 130.49 46.4083V48.1898C131.164 47.0704 132.476 46.0111 133.848 46.0111C134.053 46.0111 134.294 46.1556 134.294 46.3843Z" fill="white"/>
<path d="M147.438 50.8259C147.438 51.0546 147.233 51.2592 147.005 51.2592H139.012C139.217 53.1611 140.697 55.0148 142.792 55.0148C144.224 55.0148 145.284 54.4611 146.09 53.3055C146.174 53.1852 146.295 53.1009 146.439 53.1009C146.668 53.1009 146.836 53.2694 146.836 53.4981C146.836 53.5824 146.812 53.6426 146.776 53.7028C145.97 55.1111 144.369 55.7972 142.792 55.7972C140.096 55.7972 138.182 53.3898 138.182 50.8139C138.182 48.2379 140.096 45.8426 142.792 45.8426C145.488 45.8305 147.438 48.25 147.438 50.8259ZM146.583 50.4407C146.415 48.4065 144.898 46.6611 142.804 46.6611C140.709 46.6611 139.217 48.4065 139.024 50.4407H146.583Z" fill="white"/>
<path d="M160.426 46.4685V49.2491V55.2315C160.426 55.4602 160.221 55.6287 160.017 55.6287C159.788 55.6287 159.607 55.4602 159.607 55.2315V53.5824C158.933 54.8944 157.766 55.8453 156.273 55.8453C153.89 55.8453 152.566 53.787 152.566 51.6083V46.4805C152.566 46.2759 152.746 46.0833 152.975 46.0833C153.204 46.0833 153.384 46.2879 153.384 46.4805V51.6083C153.384 53.3296 154.359 55.0509 156.285 55.0509C158.982 55.0509 159.619 52.5352 159.619 49.7546V46.4926C159.619 46.2879 159.8 46.0953 160.029 46.0953C160.221 46.0713 160.426 46.2759 160.426 46.4685Z" fill="white"/>
<path d="M180.6 50.0556V55.1833C180.6 55.412 180.396 55.5805 180.191 55.5805C179.962 55.5805 179.782 55.412 179.782 55.1833V50.0556C179.782 48.3343 178.807 46.6491 176.881 46.6491C174.473 46.6491 173.546 49.225 173.546 51.2352V55.1833C173.546 55.412 173.342 55.5805 173.137 55.5805C172.909 55.5805 172.728 55.412 172.728 55.1833V50.0556C172.728 48.3343 171.777 46.6491 169.863 46.6491C167.432 46.6491 166.421 48.563 166.505 51.1148V51.3194V55.1833C166.505 55.412 166.324 55.5805 166.096 55.5805C165.867 55.5805 165.686 55.412 165.686 55.1833V46.4204C165.686 46.1917 165.867 46.0231 166.096 46.0231C166.324 46.0231 166.505 46.1917 166.505 46.4204V47.8768C167.179 46.6491 168.443 45.8426 169.875 45.8426C171.512 45.8426 172.776 46.8778 173.294 48.3944C173.956 46.9019 175.244 45.8426 176.905 45.8426C179.264 45.8426 180.6 47.8768 180.6 50.0556Z" fill="white"/>
</g>
<defs>
<filter id="filter0_b_95_208" x="-9.59998" y="-10" width="250.4" height="116.572" filterUnits="userSpaceOnUse" color-interpolation-filters="sRGB">
<feFlood flood-opacity="0" result="BackgroundImageFix"/>
<feGaussianBlur in="BackgroundImageFix" stdDeviation="5"/>
<feComposite in2="SourceAlpha" operator="in" result="effect1_backgroundBlur_95_208"/>
<feBlend mode="normal" in="SourceGraphic" in2="effect1_backgroundBlur_95_208" result="shape"/>
</filter>
</defs>
</svg>
