<svg width="231" height="97" viewBox="0 0 231 97" fill="none" xmlns="http://www.w3.org/2000/svg">
<g filter="url(#filter0_b_95_245)">
<rect x="0.699951" y="0.5" width="229.4" height="95.5722" rx="14.5" stroke="#EDEDED" stroke-opacity="0.02"/>
<g clip-path="url(#clip0_95_245)">
<mask id="mask0_95_245" style="mask-type:luminance" maskUnits="userSpaceOnUse" x="45" y="37" width="140" height="22">
<path d="M184.9 37.4116H45.9V58.2537H184.9V37.4116Z" fill="white"/>
</mask>
<g mask="url(#mask0_95_245)">
<mask id="mask1_95_245" style="mask-type:luminance" maskUnits="userSpaceOnUse" x="45" y="37" width="140" height="22">
<path d="M184.9 37.4116H45.9V58.2537H184.9V37.4116Z" fill="white"/>
</mask>
<g mask="url(#mask1_95_245)">
<path d="M69.4035 53.845L65.5867 57.9643C65.5037 58.0543 65.4033 58.1265 65.2917 58.1763C65.1802 58.2261 65.0597 58.2525 64.9377 58.2537H46.8447C46.7585 58.2531 46.6742 58.2273 46.6023 58.1795C46.5303 58.1316 46.4737 58.0636 46.4394 57.9839C46.405 57.9042 46.3943 57.8162 46.4087 57.7304C46.423 57.6447 46.4618 57.565 46.5202 57.5011L50.3369 53.3761C50.42 53.286 50.5203 53.2139 50.6319 53.1641C50.7435 53.1143 50.864 53.0879 50.986 53.0866H69.079C69.1663 53.0862 69.2519 53.1115 69.325 53.1598C69.3981 53.208 69.4555 53.2767 69.4902 53.3576C69.5248 53.4385 69.535 53.5278 69.5196 53.6145C69.5041 53.7011 69.4638 53.7814 69.4035 53.845ZM65.5867 45.5371C65.504 45.4466 65.4037 45.3742 65.2921 45.3244C65.1804 45.2746 65.0598 45.2485 64.9377 45.2477H46.8447C46.7585 45.2475 46.6741 45.2727 46.6019 45.3202C46.5297 45.3678 46.4728 45.4355 46.4383 45.5152C46.4038 45.5949 46.3932 45.683 46.4078 45.7686C46.4223 45.8543 46.4614 45.9338 46.5202 45.9974L50.3369 50.1282C50.4196 50.2188 50.5199 50.2911 50.6316 50.3409C50.7433 50.3907 50.8639 50.4169 50.986 50.4177H69.079C69.1652 50.4179 69.2496 50.3927 69.3218 50.3451C69.394 50.2976 69.4508 50.2299 69.4853 50.1502C69.5199 50.0705 69.5304 49.9824 69.5158 49.8967C69.5014 49.8111 69.4623 49.7315 69.4035 49.6679L65.5867 45.5371ZM46.8447 42.5729H64.9377C65.0597 42.5716 65.1802 42.5453 65.2917 42.4955C65.4033 42.4457 65.5037 42.3736 65.5867 42.2835L69.4035 38.1643C69.4618 38.1003 69.5007 38.0207 69.515 37.9349C69.5294 37.8492 69.5187 37.7612 69.4842 37.6815C69.4499 37.6017 69.3933 37.5338 69.3214 37.4859C69.2494 37.438 69.1652 37.4122 69.079 37.4116H50.986C50.864 37.4129 50.7435 37.4393 50.6319 37.4891C50.5203 37.5388 50.42 37.611 50.3369 37.7011L46.5202 41.8203C46.4618 41.8842 46.423 41.9639 46.4087 42.0496C46.3943 42.1353 46.405 42.2234 46.4394 42.3031C46.4737 42.3828 46.5303 42.4508 46.6023 42.4987C46.6742 42.5466 46.7585 42.5724 46.8447 42.5729Z" fill="url(#paint0_linear_95_245)"/>
<path d="M91.342 46.2116H81.6694V42.9695H93.8606V39.7274H81.6464C80.7995 39.7274 79.9872 40.0666 79.3882 40.6702C78.7894 41.2739 78.4529 42.0926 78.4529 42.9464V46.2348C78.4529 46.6575 78.5355 47.0761 78.696 47.4666C78.8564 47.8572 79.0917 48.212 79.3882 48.5109C79.9872 49.1146 80.7995 49.4537 81.6464 49.4537H91.319V52.6958H78.6826V55.9379H91.342C92.189 55.9379 93.0012 55.5988 93.6002 54.9952C94.1991 54.3915 94.5355 53.5727 94.5355 52.719V49.4306C94.5355 49.0078 94.4529 48.5893 94.2924 48.1987C94.132 47.8082 93.8967 47.4533 93.6002 47.1544C93.3036 46.8555 92.9516 46.6184 92.5641 46.4567C92.1767 46.2949 91.7614 46.2116 91.342 46.2116Z" fill="white"/>
<path d="M110.061 39.7274H100.363C99.5156 39.7274 98.7033 40.0666 98.1043 40.6702C97.5055 41.2739 97.169 42.0926 97.169 42.9464V52.719C97.169 53.5727 97.5055 54.3915 98.1043 54.9952C98.7033 55.5988 99.5156 55.9379 100.363 55.9379H110.061C110.48 55.9379 110.895 55.8547 111.283 55.6928C111.67 55.5311 112.022 55.2939 112.318 54.995C112.614 54.696 112.849 54.3411 113.01 53.9506C113.17 53.5601 113.252 53.1416 113.252 52.719V42.9464C113.252 42.5238 113.17 42.1053 113.01 41.7147C112.849 41.3242 112.614 40.9693 112.318 40.6704C112.022 40.3714 111.67 40.1343 111.283 39.9725C110.895 39.8107 110.48 39.7274 110.061 39.7274ZM110.035 52.6958H100.386V42.9695H110.035V52.6958Z" fill="white"/>
<path d="M144.045 39.7274H134.567C134.148 39.7274 133.733 39.8107 133.345 39.9724C132.958 40.1342 132.606 40.3713 132.309 40.6702C132.013 40.9691 131.777 41.324 131.617 41.7145C131.456 42.1051 131.374 42.5236 131.374 42.9464V55.9379H134.59V50.6116H144.01V55.9379H147.227V42.9464C147.227 42.0947 146.892 41.2776 146.295 40.6743C145.699 40.071 144.89 39.7305 144.045 39.7274ZM144.022 47.3695H134.602V42.9695H144.022V47.3695Z" fill="white"/>
<path d="M181.706 39.7274H172.229C171.385 39.7305 170.575 40.071 169.979 40.6743C169.383 41.2776 169.047 42.0947 169.047 42.9464V55.9379H172.264V50.6116H181.683V55.9379H184.9V42.9464C184.9 42.5236 184.817 42.1051 184.658 41.7145C184.497 41.324 184.261 40.9691 183.965 40.6702C183.668 40.3713 183.316 40.1342 182.929 39.9724C182.542 39.8107 182.126 39.7274 181.706 39.7274ZM181.683 47.3695H172.264V42.9695H181.683V47.3695Z" fill="white"/>
<path d="M162.968 52.6958H161.681L157.086 41.0764C156.926 40.676 156.651 40.3332 156.295 40.0926C155.94 39.852 155.521 39.7248 155.093 39.7275H152.221C151.656 39.7275 151.115 39.9535 150.716 40.3557C150.317 40.758 150.093 41.3036 150.093 41.8725V55.938H153.309V42.9696H154.596L159.208 54.589C159.367 54.9886 159.641 55.3309 159.994 55.5714C160.348 55.812 160.766 55.9397 161.193 55.938H164.065C164.344 55.938 164.621 55.8825 164.879 55.7747C165.137 55.6669 165.372 55.509 165.57 55.3098C165.767 55.1105 165.924 54.8741 166.03 54.6139C166.137 54.3536 166.192 54.0747 166.192 53.793V39.7275H162.976L162.968 52.6958Z" fill="white"/>
<path d="M119.332 39.7274H116.115V52.719C116.115 53.5727 116.452 54.3915 117.05 54.9952C117.649 55.5988 118.462 55.9379 119.309 55.9379H128.981V52.6958H119.332V39.7274Z" fill="white"/>
</g>
</g>
</g>
</g>
<defs>
<filter id="filter0_b_95_245" x="-9.80005" y="-10" width="250.4" height="116.572" filterUnits="userSpaceOnUse" color-interpolation-filters="sRGB">
<feFlood flood-opacity="0" result="BackgroundImageFix"/>
<feGaussianBlur in="BackgroundImageFix" stdDeviation="5"/>
<feComposite in2="SourceAlpha" operator="in" result="effect1_backgroundBlur_95_245"/>
<feBlend mode="normal" in="SourceGraphic" in2="effect1_backgroundBlur_95_245" result="shape"/>
</filter>
<linearGradient id="paint0_linear_95_245" x1="48.3524" y1="58.7516" x2="67.4955" y2="37.3422" gradientUnits="userSpaceOnUse">
<stop offset="0.08" stop-color="#9945FF"/>
<stop offset="0.3" stop-color="#8752F3"/>
<stop offset="0.5" stop-color="#5497D5"/>
<stop offset="0.6" stop-color="#43B4CA"/>
<stop offset="0.72" stop-color="#28E0B9"/>
<stop offset="0.97" stop-color="#19FB9B"/>
</linearGradient>
<clipPath id="clip0_95_245">
<rect width="139" height="22" fill="white" transform="translate(45.9 37.2861)"/>
</clipPath>
</defs>
</svg>
