<svg width="86" height="86" viewBox="0 0 86 86" fill="none" xmlns="http://www.w3.org/2000/svg">
<g filter="url(#filter0_d_89_312)">
<rect width="58" height="58" rx="29" transform="matrix(1 0 0 -1 14 72)" fill="black"/>
<g clip-path="url(#clip0_89_312)">
<path d="M58.0767 43.3078H52.5382V41.3885C55.3247 40.9447 57.4613 38.525 57.4613 35.6155V34.3848C57.4613 33.875 57.048 33.4617 56.5382 33.4617C56.0285 33.4617 55.6152 33.875 55.6152 34.3848V35.6155C55.6152 37.5034 54.3002 39.0888 52.5383 39.5068V38.6925C52.5383 37.8442 51.8482 37.154 50.9999 37.154H50.0767V33.7695C50.0767 31.8278 48.6859 30.2055 46.8482 29.8449L47.5356 28.2983C47.7427 27.8325 47.5329 27.2869 47.067 27.0799C46.6011 26.8728 46.0556 27.0827 45.8486 27.5485L44.8615 29.7695H41.1382L40.1511 27.5484C39.9441 27.0826 39.3986 26.8727 38.9327 27.0798C38.4669 27.2868 38.2571 27.8323 38.4641 28.2982L39.1515 29.8448C37.3139 30.2054 35.9231 31.8277 35.9231 33.7693V37.1539H35C34.1517 37.1539 33.4616 37.844 33.4616 38.6923V39.5067C31.6997 39.0888 30.3847 37.5033 30.3847 35.6154V34.3847C30.3847 33.8749 29.9714 33.4616 29.4616 33.4616C28.9519 33.4616 28.5386 33.8749 28.5386 34.3847V35.6154C28.5386 38.5249 30.6751 40.9445 33.4616 41.3884V43.3077H27.9231C27.4133 43.3077 27 43.721 27 44.2307C27 44.7405 27.4133 45.1538 27.9231 45.1538H33.4615V47.073C30.675 47.5169 28.5384 49.9365 28.5384 52.846V54.0768C28.5384 54.5865 28.9518 54.9998 29.4615 54.9998C29.9713 54.9998 30.3846 54.5865 30.3846 54.0768V52.846C30.3846 50.9582 31.6996 49.3727 33.4614 48.9547V49.4614C33.4615 54.721 37.7404 59 42.9999 59C48.2593 59 52.5382 54.721 52.5382 49.4616V48.9549C54.3001 49.3729 55.6151 50.9583 55.6151 52.8462V54.077C55.6151 54.5867 56.0284 55 56.5382 55C57.0479 55 57.4612 54.5867 57.4612 54.077V52.8462C57.4612 49.9367 55.3247 47.5172 52.5382 47.0732V45.154H58.0766C58.5864 45.154 58.9997 44.7407 58.9997 44.2309C58.9997 43.7212 58.5864 43.3078 58.0767 43.3078ZM37.7691 33.7694C37.7691 32.5818 38.7353 31.6156 39.9229 31.6156H46.0767C47.2644 31.6156 48.2306 32.5818 48.2306 33.7694V37.154H37.7691V33.7694ZM50.6921 49.4616C50.6921 53.7031 47.2414 57.1538 42.9999 57.1538C38.7584 57.1538 35.3076 53.7031 35.3076 49.4616V39.0002H42.0768V47.9232C42.0768 48.4329 42.4901 48.8462 42.9999 48.8462C43.5096 48.8462 43.9229 48.4329 43.9229 47.9232V39.0002H50.6921V49.4616Z" fill="#61D290"/>
</g>
</g>
<defs>
<filter id="filter0_d_89_312" x="0" y="0" width="86" height="86" filterUnits="userSpaceOnUse" color-interpolation-filters="sRGB">
<feFlood flood-opacity="0" result="BackgroundImageFix"/>
<feColorMatrix in="SourceAlpha" type="matrix" values="0 0 0 0 0 0 0 0 0 0 0 0 0 0 0 0 0 0 127 0" result="hardAlpha"/>
<feOffset/>
<feGaussianBlur stdDeviation="7"/>
<feComposite in2="hardAlpha" operator="out"/>
<feColorMatrix type="matrix" values="0 0 0 0 0.380392 0 0 0 0 0.823529 0 0 0 0 0.564706 0 0 0 0.6 0"/>
<feBlend mode="normal" in2="BackgroundImageFix" result="effect1_dropShadow_89_312"/>
<feBlend mode="normal" in="SourceGraphic" in2="effect1_dropShadow_89_312" result="shape"/>
</filter>
<clipPath id="clip0_89_312">
<rect width="32" height="32" fill="white" transform="translate(27 27)"/>
</clipPath>
</defs>
</svg>
