<svg width="87" height="86" viewBox="0 0 87 86" fill="none" xmlns="http://www.w3.org/2000/svg">
<g filter="url(#filter0_d_89_291)">
<rect width="58" height="58" rx="29" transform="matrix(1 0 0 -1 14.5 72)" fill="black"/>
<path d="M44 58.0001C43.92 58.0001 43.83 57.9801 43.76 57.9401L41.76 56.8301C41.6 56.7401 41.5 56.5701 41.5 56.3901V53.9401C41.5 53.7601 41.6 53.5901 41.76 53.5001L43.76 52.3901C43.91 52.3101 44.09 52.3101 44.25 52.3901L46.25 53.5001C46.41 53.5901 46.51 53.7601 46.51 53.9401V56.3901C46.51 56.5701 46.41 56.7401 46.25 56.8301L44.25 57.9401C44.17 57.9801 44.08 58.0001 44 58.0001ZM42.5 56.1001L44 56.9301L45.5 56.1001V54.2401L44 53.4001L42.5 54.2301V56.1001Z" fill="#61D290"/>
<path d="M54.5 52.0799C54.42 52.0799 54.33 52.0599 54.26 52.0199L52.26 50.9099C52.1 50.8199 52 50.6499 52 50.4699V48.0299C52 47.8499 52.1 47.6799 52.26 47.5899L54.26 46.4799C54.41 46.3999 54.59 46.3999 54.75 46.4799L56.75 47.5899C56.9 47.6799 57 47.8499 57 48.0299V50.4699C57 50.6499 56.9 50.8199 56.74 50.9099L54.74 52.0199C54.67 52.0599 54.58 52.0799 54.5 52.0799ZM53 50.1799L54.5 51.0099L56 50.1799V48.3299L54.5 47.4999L53 48.3199V50.1799Z" fill="#61D290"/>
<path d="M33.5 52.0799C33.42 52.0799 33.33 52.0599 33.26 52.0199L31.26 50.9099C31.1 50.8199 31 50.6499 31 50.4699V48.0299C31 47.8499 31.1 47.6799 31.26 47.5899L33.26 46.4799C33.41 46.3999 33.59 46.3999 33.75 46.4799L35.75 47.5899C35.9 47.6799 36 47.8499 36 48.0299V50.4699C36 50.6499 35.9 50.8199 35.74 50.9099L33.74 52.0199C33.67 52.0599 33.58 52.0799 33.5 52.0799ZM32 50.1799L33.5 51.0099L35 50.1799V48.3299L33.5 47.4999L32 48.3199V50.1799Z" fill="#61D290"/>
<path d="M44 33.67C43.92 33.67 43.83 33.65 43.76 33.61L41.76 32.5C41.6 32.41 41.5 32.24 41.5 32.06V29.61C41.5 29.43 41.6 29.26 41.76 29.17L43.76 28.06C43.91 27.98 44.09 27.98 44.25 28.06L46.25 29.17C46.41 29.26 46.51 29.43 46.51 29.61V32.06C46.51 32.24 46.41 32.41 46.25 32.5L44.25 33.61C44.17 33.65 44.08 33.67 44 33.67ZM42.5 31.77L44 32.6L45.5 31.77V29.9L44 29.07L42.5 29.9V31.77Z" fill="#61D290"/>
<path d="M54.5 39.0799C54.42 39.0799 54.33 39.0599 54.26 39.0199L52.26 37.9099C52.1 37.8199 52 37.6499 52 37.4699V35.0299C52 34.8499 52.1 34.6799 52.26 34.5899L54.26 33.4799C54.41 33.3999 54.59 33.3999 54.75 33.4799L56.75 34.5899C56.9 34.6799 57 34.8499 57 35.0299V37.4699C57 37.6499 56.9 37.8199 56.74 37.9099L54.74 39.0199C54.67 39.0599 54.58 39.0799 54.5 39.0799ZM53 37.1799L54.5 38.0099L56 37.1799V35.3199L54.5 34.4899L53 35.3199V37.1799Z" fill="#61D290"/>
<path d="M33.5 39.0799C33.42 39.0799 33.33 39.0599 33.26 39.0199L31.26 37.9099C31.1 37.8199 31 37.6499 31 37.4699V35.0299C31 34.8499 31.1 34.6799 31.26 34.5899L33.26 33.4799C33.41 33.3999 33.59 33.3999 33.75 33.4799L35.75 34.5899C35.9 34.6799 36 34.8499 36 35.0299V37.4699C36 37.6499 35.9 37.8199 35.74 37.9099L33.74 39.0199C33.67 39.0599 33.58 39.0799 33.5 39.0799ZM32 37.1799L33.5 38.0099L35 37.1799V35.3199L33.5 34.4899L32 35.3199V37.1799Z" fill="#61D290"/>
<path d="M54.5 47.4201C54.22 47.4201 54 47.2001 54 46.9201V38.5801C54 38.3001 54.22 38.0801 54.5 38.0801C54.78 38.0801 55 38.3001 55 38.5801V46.9201C55 47.2001 54.78 47.4201 54.5 47.4201Z" fill="#61D290"/>
<path d="M46 54.64C45.82 54.64 45.65 54.55 45.56 54.38C45.43 54.14 45.51 53.83 45.75 53.7L52.3 50.06C52.54 49.93 52.85 50.01 52.98 50.25C53.11 50.49 53.03 50.8 52.79 50.93L46.24 54.57C46.17 54.62 46.08 54.64 46 54.64Z" fill="#61D290"/>
<path d="M42.0005 54.6403C41.9205 54.6403 41.8305 54.6203 41.7605 54.5803L35.2105 50.9403C34.9705 50.8103 34.8805 50.5003 35.0205 50.2603C35.1505 50.0203 35.4605 49.9303 35.7005 50.0703L42.2505 53.7103C42.4905 53.8403 42.5805 54.1503 42.4405 54.3903C42.3505 54.5503 42.1805 54.6403 42.0005 54.6403Z" fill="#61D290"/>
<path d="M33.5 47.4201C33.22 47.4201 33 47.2001 33 46.9201V38.5801C33 38.3001 33.22 38.0801 33.5 38.0801C33.78 38.0801 34 38.3001 34 38.5801V46.9201C34 47.2001 33.78 47.4201 33.5 47.4201Z" fill="#61D290"/>
<path d="M35.4996 35.9697C35.3196 35.9697 35.1496 35.8797 35.0596 35.7097C34.9296 35.4697 35.0196 35.1697 35.2596 35.0397L41.7596 31.4297C41.9996 31.2897 42.2996 31.3797 42.4396 31.6197C42.5696 31.8597 42.4896 32.1697 42.2496 32.2997L35.7496 35.9097C35.6696 35.9497 35.5796 35.9697 35.4996 35.9697Z" fill="#61D290"/>
<path d="M52.5003 35.9699C52.4203 35.9699 52.3303 35.9499 52.2603 35.9099L45.7603 32.2999C45.5203 32.1699 45.4303 31.8599 45.5703 31.6199C45.7003 31.3799 46.0003 31.2899 46.2403 31.4199L52.7403 35.0299C52.9803 35.1599 53.0703 35.4699 52.9303 35.7099C52.8503 35.8799 52.6803 35.9699 52.5003 35.9699Z" fill="#61D290"/>
<path d="M48.5 40.2996C48.42 40.2996 48.33 40.2796 48.26 40.2396L44 37.8696L39.74 40.2396C39.5 40.3696 39.19 40.2896 39.06 40.0496C38.93 39.8096 39.01 39.4996 39.25 39.3696L43.75 36.8696C43.9 36.7896 44.08 36.7896 44.24 36.8696L48.74 39.3696C48.98 39.4996 49.07 39.8096 48.93 40.0496C48.85 40.2096 48.68 40.2996 48.5 40.2996Z" fill="#61D290"/>
<path d="M44 48.3003C43.82 48.3003 43.65 48.2103 43.56 48.0403C43.43 47.8003 43.51 47.4903 43.75 47.3603L48 45.0103V40.6503L44.24 42.7403C44 42.8703 43.69 42.7903 43.56 42.5503C43.43 42.3103 43.51 42.0003 43.75 41.8703L48.25 39.3703C48.4 39.2803 48.59 39.2903 48.75 39.3803C48.91 39.4703 49 39.6203 49 39.8003V45.3003C49 45.4803 48.9 45.6503 48.74 45.7403L44.24 48.2403C44.17 48.2803 44.08 48.3003 44 48.3003Z" fill="#61D290"/>
<path d="M44 48.2996C43.92 48.2996 43.83 48.2796 43.76 48.2396L39.26 45.7396C39.1 45.6496 39 45.4796 39 45.2996V39.7996C39 39.6196 39.09 39.4596 39.25 39.3696C39.4 39.2796 39.59 39.2796 39.75 39.3596L44.25 41.8596C44.41 41.9496 44.51 42.1196 44.51 42.2996V47.7996C44.51 47.9796 44.42 48.1396 44.26 48.2296C44.18 48.2796 44.09 48.2996 44 48.2996ZM40 45.0096L43.5 46.9496V42.5896L40 40.6496V45.0096Z" fill="#61D290"/>
<path d="M44 53.17C43.72 53.17 43.5 52.95 43.5 52.67V49.5C43.5 49.22 43.72 49 44 49C44.28 49 44.5 49.22 44.5 49.5V52.67C44.5 52.94 44.28 53.17 44 53.17Z" fill="#61D290"/>
<path d="M49.9998 39.5303C49.8298 39.5303 49.6698 39.4503 49.5798 39.3003C49.4298 39.0703 49.4998 38.7603 49.7398 38.6103L52.1998 37.0603C52.4298 36.9103 52.7398 36.9803 52.8898 37.2203C53.0398 37.4503 52.9698 37.7603 52.7298 37.9103L50.2698 39.4603C50.1798 39.5003 50.0898 39.5303 49.9998 39.5303Z" fill="#61D290"/>
<path d="M37.96 39.5305C37.87 39.5305 37.78 39.5005 37.69 39.4505L35.23 37.9005C35 37.7505 34.93 37.4405 35.07 37.2105C35.22 36.9805 35.53 36.9105 35.76 37.0505L38.22 38.6005C38.45 38.7505 38.52 39.0605 38.38 39.2905C38.29 39.4505 38.13 39.5305 37.96 39.5305Z" fill="#61D290"/>
<path d="M52.46 48.5305C52.37 48.5305 52.28 48.5005 52.19 48.4505L49.73 46.9005C49.5 46.7505 49.43 46.4405 49.57 46.2105C49.72 45.9805 50.03 45.9105 50.26 46.0505L52.72 47.6005C52.95 47.7505 53.02 48.0605 52.88 48.2905C52.79 48.4505 52.63 48.5305 52.46 48.5305Z" fill="#61D290"/>
<path d="M35.5002 48.5295C35.3302 48.5295 35.1702 48.4495 35.0802 48.2995C34.9302 48.0595 35.0002 47.7495 35.2302 47.5995L37.6902 46.0495C37.9202 45.8995 38.2302 45.9695 38.3802 46.2095C38.5302 46.4395 38.4602 46.7495 38.2202 46.8995L35.7602 48.4495C35.6802 48.4995 35.5902 48.5295 35.5002 48.5295Z" fill="#61D290"/>
<path d="M44 36C43.72 36 43.5 35.78 43.5 35.5V33.5C43.5 33.22 43.72 33 44 33C44.28 33 44.5 33.22 44.5 33.5V35.5C44.5 35.78 44.28 36 44 36Z" fill="#61D290"/>
</g>
<defs>
<filter id="filter0_d_89_291" x="0.5" y="0" width="86" height="86" filterUnits="userSpaceOnUse" color-interpolation-filters="sRGB">
<feFlood flood-opacity="0" result="BackgroundImageFix"/>
<feColorMatrix in="SourceAlpha" type="matrix" values="0 0 0 0 0 0 0 0 0 0 0 0 0 0 0 0 0 0 127 0" result="hardAlpha"/>
<feOffset/>
<feGaussianBlur stdDeviation="7"/>
<feComposite in2="hardAlpha" operator="out"/>
<feColorMatrix type="matrix" values="0 0 0 0 0.380392 0 0 0 0 0.823529 0 0 0 0 0.564706 0 0 0 0.6 0"/>
<feBlend mode="normal" in2="BackgroundImageFix" result="effect1_dropShadow_89_291"/>
<feBlend mode="normal" in="SourceGraphic" in2="effect1_dropShadow_89_291" result="shape"/>
</filter>
</defs>
</svg>
