<svg width="26" height="26" viewBox="0 0 26 26" fill="none" xmlns="http://www.w3.org/2000/svg">
<path d="M9.12832 5C8.38314 5 6.13651 5.89551 5.73345 6.07447C5.33039 6.25344 4.88301 6.81211 4.37537 7.73416C3.86704 8.6562 3.45913 9.73408 2.79636 11.3196C2.13429 12.9051 1.97985 15.9618 2.00201 16.8947C2.02417 17.8277 2.1329 18.5565 3.10593 19.1083C4.07827 19.6595 4.93841 20.2366 5.84357 20.5836C6.74942 20.9307 7.36717 21.1804 7.78685 20.8333C8.20654 20.4863 8.48286 19.8786 8.48286 19.8786C8.48286 19.8786 8.88039 19.3363 8.12966 19.011C7.37894 18.6851 7.00358 18.4571 7.03613 18.121C7.06938 17.7848 7.12409 17.6004 7.31177 17.6439C7.49945 17.6875 7.94198 18.468 9.64219 18.8259C11.3424 19.1839 12.9997 19.1301 12.9997 19.1301C12.9997 19.1301 14.6576 19.1846 16.3578 18.8259C18.058 18.468 18.4999 17.6875 18.6875 17.6439C18.8752 17.6004 18.9299 17.7848 18.9632 18.1203C18.9964 18.4571 18.6211 18.6851 17.8703 19.011C17.1196 19.3363 17.5171 19.8786 17.5171 19.8786C17.5171 19.8786 17.7935 20.4856 18.2131 20.8333C18.6321 21.1804 19.2506 20.9307 20.1557 20.5836C21.0609 20.2366 21.9217 19.6602 22.8941 19.1083C23.8671 18.5565 23.9758 17.8277 23.998 16.8947C24.0201 15.9625 23.8657 12.9051 23.2029 11.3196C22.5409 9.73408 22.1323 8.6562 21.6239 7.73416C21.117 6.81211 20.6689 6.25344 20.2665 6.07379C19.8635 5.89551 17.6162 5 16.871 5C16.1258 5 15.9056 5.51036 15.9056 5.51036L15.6459 6.07447C15.6459 6.07447 13.9007 5.74853 13.0114 5.74784C12.1222 5.74784 10.3541 6.07447 10.3541 6.07447L10.0944 5.50968C10.0944 5.50968 9.87419 5 9.12832 5ZM9.20935 11.7694H9.23705C10.3237 11.7694 11.2039 12.7037 11.2039 13.8557C11.2039 15.0085 10.3237 15.9421 9.23705 15.9421C8.15044 15.9421 7.27021 15.0085 7.27021 13.8557C7.26952 12.7146 8.13382 11.785 9.20935 11.7694ZM16.763 11.7694H16.7907C17.8662 11.785 18.7298 12.7153 18.7298 13.8557C18.7298 15.0085 17.8496 15.9421 16.763 15.9421C15.6757 15.9421 14.7961 15.0085 14.7961 13.8557C14.7961 12.7037 15.6757 11.7694 16.763 11.7694Z" fill="white"/>
</svg>
