<svg width="26" height="26" viewBox="0 0 26 26" fill="none" xmlns="http://www.w3.org/2000/svg">
<path fill-rule="evenodd" clip-rule="evenodd" d="M8.125 3.71338C5.43261 3.71338 3.25 5.89599 3.25 8.58838V18.3384C3.25 21.0308 5.43261 23.2134 8.125 23.2134H17.875C20.5674 23.2134 22.75 21.0308 22.75 18.3384V8.58838C22.75 5.89599 20.5674 3.71338 17.875 3.71338H8.125ZM13 9.91792C11.0419 9.91792 9.45455 11.5053 9.45455 13.4634C9.45455 15.4214 11.0419 17.0088 13 17.0088C14.9581 17.0088 16.5455 15.4214 16.5455 13.4634C16.5455 11.5053 14.9581 9.91792 13 9.91792ZM7.68182 13.4634C7.68182 10.5262 10.0628 8.1452 13 8.1452C15.9371 8.1452 18.3182 10.5262 18.3182 13.4634C18.3182 16.4005 15.9371 18.7816 13 18.7816C10.0628 18.7816 7.68182 16.4005 7.68182 13.4634ZM18.3182 6.37247C17.3391 6.37247 16.5455 7.16615 16.5455 8.1452C16.5455 9.12425 17.3391 9.91792 18.3182 9.91792C19.2973 9.91792 20.0909 9.12425 20.0909 8.1452C20.0909 7.16615 19.2973 6.37247 18.3182 6.37247Z" fill="white"/>
</svg>
