<svg width="86" height="86" viewBox="0 0 86 86" fill="none" xmlns="http://www.w3.org/2000/svg">
<g filter="url(#filter0_d_89_282)">
<rect width="58" height="58" rx="29" transform="matrix(1 0 0 -1 14 72)" fill="black"/>
<g clip-path="url(#clip0_89_282)">
<path d="M47.4032 38.7545L46.0142 40.1435C45.8312 40.3265 45.8312 40.6233 46.0143 40.8063C46.1058 40.8978 46.2258 40.9436 46.3457 40.9436C46.4657 40.9436 46.5857 40.8978 46.6772 40.8063L48.0662 39.4173C48.2492 39.2342 48.2492 38.9374 48.0661 38.7544C47.8831 38.5715 47.5863 38.5714 47.4032 38.7545Z" fill="#61D290"/>
<path d="M51.1466 37.7886L48.7926 40.1427C48.6095 40.3258 48.6095 40.6226 48.7926 40.8056C48.8841 40.8971 49.0041 40.9429 49.1241 40.9429C49.244 40.9429 49.364 40.8971 49.4556 40.8056L51.8096 38.4516C51.9927 38.2684 51.9927 37.9717 51.8096 37.7886C51.6264 37.6056 51.3297 37.6056 51.1466 37.7886Z" fill="#61D290"/>
<path d="M37.9333 38.7544C37.7501 38.9375 37.7501 39.2343 37.9332 39.4173L39.3221 40.8063C39.4137 40.8978 39.5336 40.9436 39.6536 40.9436C39.7736 40.9436 39.8936 40.8978 39.9851 40.8063C40.1682 40.6233 40.1682 40.3265 39.9851 40.1435L38.5962 38.7545C38.4131 38.5715 38.1163 38.5714 37.9333 38.7544Z" fill="#61D290"/>
<path d="M34.19 38.4516L36.5441 40.8056C36.6356 40.8971 36.7556 40.9429 36.8756 40.9429C36.9955 40.9429 37.1155 40.8971 37.2071 40.8056C37.3901 40.6225 37.3901 40.3257 37.2071 40.1427L34.853 37.7886C34.6699 37.6056 34.3731 37.6056 34.1901 37.7886C34.007 37.9717 34.007 38.2685 34.19 38.4516Z" fill="#61D290"/>
<path d="M52.3252 33.0269C52.5841 33.0269 52.7939 32.8171 52.7939 32.5582V31.9268C52.7939 31.6678 52.5841 31.458 52.3252 31.458C52.0663 31.458 51.8564 31.6678 51.8564 31.9268V32.5582C51.8564 32.8171 52.0663 33.0269 52.3252 33.0269Z" fill="#61D290"/>
<path d="M53.126 33.8281H53.7574C54.0163 33.8281 54.2261 33.6183 54.2261 33.3594C54.2261 33.1004 54.0163 32.8906 53.7574 32.8906H53.126C52.867 32.8906 52.6572 33.1004 52.6572 33.3594C52.6572 33.6183 52.8671 33.8281 53.126 33.8281Z" fill="#61D290"/>
<path d="M52.3252 35.2613C52.5841 35.2613 52.7939 35.0514 52.7939 34.7925V34.1611C52.7939 33.9022 52.5841 33.6924 52.3252 33.6924C52.0663 33.6924 51.8564 33.9022 51.8564 34.1611V34.7925C51.8564 35.0514 52.0663 35.2613 52.3252 35.2613Z" fill="#61D290"/>
<path d="M50.8916 33.8281H51.523C51.7819 33.8281 51.9917 33.6183 51.9917 33.3594C51.9917 33.1004 51.7819 32.8906 51.523 32.8906H50.8916C50.6327 32.8906 50.4229 33.1004 50.4229 33.3594C50.4229 33.6183 50.6327 33.8281 50.8916 33.8281Z" fill="#61D290"/>
<path d="M34.8115 28.5689C35.0705 28.5689 35.2803 28.3591 35.2803 28.1001V27.4688C35.2803 27.2098 35.0705 27 34.8115 27C34.5526 27 34.3428 27.2098 34.3428 27.4688V28.1001C34.3428 28.359 34.5526 28.5689 34.8115 28.5689Z" fill="#61D290"/>
<path d="M33.3789 29.3701H34.0103C34.2692 29.3701 34.479 29.1603 34.479 28.9014C34.479 28.6424 34.2692 28.4326 34.0103 28.4326H33.3789C33.12 28.4326 32.9102 28.6424 32.9102 28.9014C32.9102 29.1603 33.12 29.3701 33.3789 29.3701Z" fill="#61D290"/>
<path d="M35.2803 30.3344V29.7031C35.2803 29.4442 35.0705 29.2344 34.8115 29.2344C34.5526 29.2344 34.3428 29.4442 34.3428 29.7031V30.3345C34.3428 30.5934 34.5526 30.8033 34.8115 30.8033C35.0705 30.8033 35.2803 30.5934 35.2803 30.3344Z" fill="#61D290"/>
<path d="M35.6133 29.3701H36.2447C36.5037 29.3701 36.7135 29.1603 36.7135 28.9014C36.7135 28.6424 36.5037 28.4326 36.2447 28.4326H35.6133C35.3543 28.4326 35.1445 28.6424 35.1445 28.9014C35.1445 29.1603 35.3543 29.3701 35.6133 29.3701Z" fill="#61D290"/>
<path d="M57.6001 37.2385L56.4637 36.1021C56.2806 35.9192 55.9838 35.919 55.8007 36.1021L49.3719 42.5309H36.6282L30.1994 36.1022C30.0162 35.9192 29.7195 35.9192 29.5364 36.1022L28.4 37.2386C28.2169 37.4217 28.2169 37.7185 28.4 37.9015L33.6924 43.1939V54.0309C33.6924 54.2898 33.9022 54.4997 34.1611 54.4997C34.4201 54.4997 34.6299 54.2898 34.6299 54.0309V43.4684H41.2686V58.0622H34.6299V56.2273C34.6299 55.9684 34.4201 55.7586 34.1611 55.7586C33.9022 55.7586 33.6924 55.9684 33.6924 56.2273V58.5309C33.6924 58.7898 33.9022 58.9997 34.1611 58.9997H51.839C52.0979 58.9997 52.3077 58.7898 52.3077 58.5309V48.2843C52.3077 48.0253 52.0979 47.8155 51.839 47.8155C51.5801 47.8155 51.3702 48.0253 51.3702 48.2843V58.0622H44.7315V43.4684H51.3702V46.0845C51.3702 46.3434 51.5801 46.5532 51.839 46.5532C52.0979 46.5532 52.3077 46.3434 52.3077 46.0845V43.1938L57.6001 37.9015C57.7831 37.7184 57.7831 37.4217 57.6001 37.2385ZM29.8679 37.0965L35.3023 42.5309H34.3554L29.3944 37.57L29.8679 37.0965ZM43.794 58.0622H42.2061V43.4684H43.794V58.0622ZM51.6447 42.5309H50.6978L56.1322 37.0965L56.6057 37.57L51.6447 42.5309Z" fill="#61D290"/>
<path d="M43.4209 35.208H42.4528C42.0847 35.208 41.7852 34.9085 41.7852 34.5403C41.7852 34.2814 41.5753 34.0716 41.3164 34.0716C41.0575 34.0716 40.8477 34.2814 40.8477 34.5403C40.8477 35.4254 41.5677 36.1455 42.4528 36.1455H42.5313V36.9395C42.5313 37.1984 42.7411 37.4082 43 37.4082C43.259 37.4082 43.4688 37.1984 43.4688 36.9395V36.1443C44.4014 36.1188 45.1524 35.3527 45.1524 34.414C45.1524 33.4593 44.3757 32.6826 43.421 32.6826H42.5792C42.1413 32.6826 41.7852 32.3264 41.7852 31.8886C41.7852 31.4508 42.1413 31.0947 42.5792 31.0947H43.5472C43.9154 31.0947 44.2149 31.3942 44.2149 31.7624C44.2149 32.0213 44.4247 32.2312 44.6837 32.2312C44.9426 32.2312 45.1524 32.0213 45.1524 31.7624C45.1524 30.8773 44.4323 30.1572 43.5472 30.1572H43.4688V29.3633C43.4688 29.1043 43.259 28.8945 43 28.8945C42.7411 28.8945 42.5313 29.1043 42.5313 29.3633V30.1585C41.5987 30.184 40.8477 30.95 40.8477 31.8887C40.8477 32.8435 41.6244 33.6202 42.5791 33.6202H43.4209C43.8587 33.6202 44.2148 33.9763 44.2148 34.4142C44.2148 34.852 43.8587 35.208 43.4209 35.208Z" fill="#61D290"/>
<path d="M42.9996 39.3018C46.3913 39.3018 49.1505 36.5426 49.1505 33.1509C49.1505 29.7593 46.3913 27 42.9996 27C41.7753 27 40.5927 27.3588 39.5796 28.0378C39.3645 28.1819 39.307 28.473 39.4511 28.6881C39.5951 28.9031 39.8864 28.9607 40.1014 28.8166C40.9596 28.2414 41.9618 27.9375 42.9996 27.9375C45.8743 27.9375 48.213 30.2763 48.213 33.1509C48.213 36.0256 45.8743 38.3643 42.9996 38.3643C40.1249 38.3643 37.7861 36.0256 37.7861 33.1509C37.7861 32.1081 38.0928 31.1019 38.673 30.2411C38.8177 30.0264 38.761 29.7351 38.5464 29.5904C38.3316 29.4457 38.0404 29.5025 37.8957 29.7171C37.2107 30.7333 36.8486 31.9208 36.8486 33.1509C36.8486 36.5426 39.6079 39.3018 42.9996 39.3018Z" fill="#61D290"/>
</g>
</g>
<defs>
<filter id="filter0_d_89_282" x="0" y="0" width="86" height="86" filterUnits="userSpaceOnUse" color-interpolation-filters="sRGB">
<feFlood flood-opacity="0" result="BackgroundImageFix"/>
<feColorMatrix in="SourceAlpha" type="matrix" values="0 0 0 0 0 0 0 0 0 0 0 0 0 0 0 0 0 0 127 0" result="hardAlpha"/>
<feOffset/>
<feGaussianBlur stdDeviation="7"/>
<feComposite in2="hardAlpha" operator="out"/>
<feColorMatrix type="matrix" values="0 0 0 0 0.380392 0 0 0 0 0.823529 0 0 0 0 0.564706 0 0 0 0.6 0"/>
<feBlend mode="normal" in2="BackgroundImageFix" result="effect1_dropShadow_89_282"/>
<feBlend mode="normal" in="SourceGraphic" in2="effect1_dropShadow_89_282" result="shape"/>
</filter>
<clipPath id="clip0_89_282">
<rect width="32" height="32" fill="white" transform="translate(27 27)"/>
</clipPath>
</defs>
</svg>
