<svg width="496" height="440" viewBox="0 0 496 440" fill="none" xmlns="http://www.w3.org/2000/svg">
<path opacity="0.02" d="M188.456 -66.9997C270.171 -66.836 348.475 -33.9807 406.141 24.3385C463.807 82.6577 496.112 161.664 495.95 243.976C495.787 326.288 463.17 405.164 405.274 463.251C347.378 521.339 268.946 553.88 187.231 553.717C16.3363 553.566 -120.349 414.344 -119.999 240.89C-119.624 70.9877 18.9121 -67.2515 188.456 -66.9997ZM418.667 261.142C447.574 225.449 445.649 126.555 420.867 102.575C424.341 129.325 422.202 156.51 414.591 182.375C399.187 165.523 384.958 149.276 369.854 133.936C365.625 130.062 360.09 127.955 354.375 128.042C302.061 130.888 251.223 141.014 202.885 162.072C197.534 164.415 192.633 167.79 186.056 171.518L258.225 175.297L258.375 179.151C255.574 180.813 252.848 182.602 249.998 184.189C144.174 241.068 62.053 334.217 18.4869 446.788C16.9115 450.894 15.6362 458.425 17.7117 460.189C39.3579 478.498 64.101 492.73 90.7559 502.204C114.162 416.384 154.172 341.27 213.788 277.087C183.205 354.645 159.699 433.966 147.296 517.444C175.853 517.444 202.31 517.444 228.792 517.444C237.919 517.444 238.795 511.575 238.595 503.867C237 455.576 241.131 407.266 250.898 359.96C257.625 328.373 266.677 297.314 274.679 266.004C278.98 304.795 279.455 342.857 282.956 380.641C286.507 418.853 292.959 456.813 298.535 496.512C324.144 485.749 347.727 470.634 368.254 451.826C370.304 449.962 370.004 443.362 368.529 439.911C351.099 399.41 340.298 356.333 336.545 312.352C332.612 268.803 336.088 224.897 346.823 182.526C378.006 202.93 400.337 230.059 418.667 261.142ZM303.637 28.594L389.634 57.8136C328.793 -16.9484 198.784 -64.5311 75.6269 -9.21526C-18.1227 32.9014 -102.095 158.999 -84.0899 231.494C-83.304 231.381 -82.543 231.134 -81.8393 230.764C-41.8102 198.34 3.77978 173.581 52.6709 157.715C56.0968 156.606 59.0225 151.921 60.848 148.218C65.8493 138.143 70.0255 127.916 74.8267 117.084C95.057 129.024 114.187 137.991 136.593 138.42C131.291 130.132 125.865 123.608 122.814 116.102C121.039 111.719 122.039 101.542 123.564 101.165C131.266 99.2502 139.994 90.7865 147.346 103.23C150.627 109.198 155.767 113.911 161.972 116.643C168.178 119.375 175.103 119.972 181.68 118.344C189.757 116.757 197.184 111.82 205.961 107.915L199.909 127.639C222.715 116.001 240.145 101.694 251.873 81.1894C237.344 76.9072 223.441 74.6905 211.387 68.5947C199.334 62.4989 189.257 52.5743 177.879 44.9923C174.333 43.0037 170.255 42.1928 166.226 42.6748C116.938 46.7227 69.6797 64.2366 29.5398 93.3307C26.389 95.6481 23.0381 97.6884 19.7873 99.8547C48.4698 51.7178 91.0059 24.0851 144.82 14.3872C184.831 7.15781 223.991 10.2057 258.875 33.8837C269.303 40.962 277.78 51.0125 288.708 61.1387L303.637 28.594ZM-30.776 410.414C9.53459 318.07 69.6004 245.197 150.947 189.453C148.996 188.723 148.196 188.093 147.596 188.244C63.5293 207.997 -12.6982 252.757 -71.1866 316.71C-72.3292 318.065 -73.165 319.656 -73.6357 321.37C-74.1064 323.083 -74.2008 324.88 -73.9123 326.635C-64.7604 356.991 -50.1378 385.392 -30.776 410.414ZM334.62 77.0331C311.489 82.071 284.107 76.1767 276.43 107.915C300.486 116.706 325.492 104.137 334.62 77.0331Z" fill="white"/>
</svg>
